<svg xmlns="http://www.w3.org/2000/svg" width="60" height="60" viewBox="0 0 60 60" fill="none">
<rect width="60" height="60" rx="30" fill="black"/>
<path xmlns="http://www.w3.org/2000/svg" d="M30.9186 38.6536H33.9493V41.6842H30.9186V38.6536ZM30.9186 41.6842H33.9493V44.7148H30.9186V41.6842ZM27.888 41.6842H30.9186V44.7148H27.888V41.6842ZM27.888 38.6536H30.9186V41.6842H27.888V38.6536ZM27.888 35.623H30.9186V38.6536H27.888V35.623ZM27.888 32.5924H30.9186V35.623H27.888V32.5924ZM27.888 29.5618H30.9186V32.5924H27.888V29.5618ZM27.888 26.5312H30.9186V29.5618H27.888V26.5312ZM27.888 23.5006H30.9186V26.5312H27.888V23.5006ZM27.888 20.4699H30.9186V23.5006H27.888V20.4699ZM30.9186 23.5006H33.9493V26.5312H30.9186V23.5006ZM30.9186 26.5312H33.9493V29.5618H30.9186V26.5312ZM30.9186 29.5618H33.9493V32.5924H30.9186V29.5618ZM30.9186 32.5924H33.9493V35.623H30.9186V32.5924ZM30.9186 35.623H33.9493V38.6536H30.9186V35.623ZM30.9186 20.4699H33.9493V23.5006H30.9186V20.4699ZM30.9186 17.4393H33.9493V20.4699H30.9186V17.4393ZM27.888 14.4087H30.9186V17.4393H27.888V14.4087ZM30.9186 14.4087H33.9493V17.4393H30.9186V14.4087ZM27.888 17.4393H30.9186V20.4699H27.888V17.4393ZM24.8574 14.4087H27.888V17.4393H24.8574V14.4087ZM24.8574 17.4393H27.888V20.4699H24.8574V17.4393Z" fill="white"/>
</svg>