<svg xmlns="http://www.w3.org/2000/svg" width="60" height="60" viewBox="0 0 60 60" fill="none">
<rect width="60" height="60" rx="30" fill="black"/>
<path d="M19.7129 18.4393H22.7435V21.4699H19.7129V18.4393ZM22.7435 18.4393H25.7741V21.4699H22.7435V18.4393ZM22.7435 21.4699H25.7741V24.5006H22.7435V21.4699ZM19.7129 21.4699H22.7435V24.5006H19.7129V21.4699ZM22.7435 15.4087H25.7741V18.4393H22.7435V15.4087ZM25.7741 18.4393H28.8047V21.4699H25.7741V18.4393ZM28.8047 18.4393H31.8353V21.4699H28.8047V18.4393ZM31.8353 18.4393H34.866V21.4699H31.8353V18.4393ZM34.866 18.4393H37.8966V21.4699H34.866V18.4393ZM34.866 15.4087H37.8966V18.4393H34.866V15.4087ZM31.8353 15.4087H34.866V18.4393H31.8353V15.4087ZM28.8047 15.4087H31.8353V18.4393H28.8047V15.4087ZM25.7741 15.4087H28.8047V18.4393H25.7741V15.4087ZM37.8966 18.4393H40.9272V21.4699H37.8966V18.4393ZM37.8966 21.4699H40.9272V24.5006H37.8966V21.4699ZM37.8966 24.5006H40.9272V27.5312H37.8966V24.5006ZM34.866 24.5006H37.8966V27.5312H34.866V24.5006ZM34.866 21.4699H37.8966V24.5006H34.866V21.4699ZM34.866 27.5312H37.8966V30.5618H34.866V27.5312ZM31.8353 27.5312H34.866V30.5618H31.8353V27.5312ZM28.8047 27.5312H31.8353V30.5618H28.8047V27.5312ZM25.7741 27.5312H28.8047V30.5618H25.7741V27.5312ZM25.7741 30.5618H28.8047V33.5924H25.7741V30.5618ZM28.8047 30.5618H31.8353V33.5924H28.8047V30.5618ZM31.8353 30.5618H34.866V33.5924H31.8353V30.5618ZM34.866 30.5618H37.8966V33.5924H34.866V30.5618ZM34.866 33.5924H37.8966V36.623H34.866V33.5924ZM34.866 36.623H37.8966V39.6536H34.866V36.623ZM37.8966 36.623H40.9272V39.6536H37.8966V36.623ZM37.8966 33.5924H40.9272V36.623H37.8966V33.5924ZM37.8966 39.6536H40.9272V42.6842H37.8966V39.6536ZM34.866 39.6536H37.8966V42.6842H34.866V39.6536ZM34.866 42.6842H37.8966V45.7148H34.866V42.6842ZM31.8353 39.6536H34.866V42.6842H31.8353V39.6536ZM28.8047 39.6536H31.8353V42.6842H28.8047V39.6536ZM25.7741 42.6842H28.8047V45.7148H25.7741V42.6842ZM22.7435 42.6842H25.7741V45.7148H22.7435V42.6842ZM22.7435 39.6536H25.7741V42.6842H22.7435V39.6536ZM25.7741 39.6536H28.8047V42.6842H25.7741V39.6536ZM28.8047 42.6842H31.8353V45.7148H28.8047V42.6842ZM31.8353 42.6842H34.866V45.7148H31.8353V42.6842ZM22.7435 36.623H25.7741V39.6536H22.7435V36.623ZM19.7129 36.623H22.7435V39.6536H19.7129V36.623ZM19.7129 39.6536H22.7435V42.6842H19.7129V39.6536Z" fill="white"/>
</svg>