<svg xmlns="http://www.w3.org/2000/svg" width="144" height="115" viewBox="0 0 144 115" fill="none">
<path d="M143.374 57.0839H133.875V66.5979H143.374V57.0839Z" fill="black"/>
<path d="M143.374 47.5696H133.875V57.0836H143.374V47.5696Z" fill="black"/>
<path d="M133.873 66.5995H124.373V76.1136H133.873V66.5995Z" fill="black"/>
<path d="M133.873 57.0839H124.373V66.5979H133.873V57.0839Z" fill="black"/>
<path d="M133.873 47.5696H124.373V57.0836H133.873V47.5696Z" fill="black"/>
<path d="M133.873 38.0551H124.373V47.5691H133.873V38.0551Z" fill="black"/>
<path d="M124.377 76.1113H114.877V85.6253H124.377V76.1113Z" fill="black"/>
<path d="M124.377 66.5995H114.877V76.1136H124.377V66.5995Z" fill="black"/>
<path d="M124.377 38.0551H114.877V47.5691H124.377V38.0551Z" fill="black"/>
<path d="M124.377 28.5417H114.877V38.0558H124.377V28.5417Z" fill="black"/>
<path d="M114.874 85.6284H105.375V95.1424H114.874V85.6284Z" fill="black"/>
<path d="M114.874 76.1113H105.375V85.6253H114.874V76.1113Z" fill="black"/>
<path d="M114.874 28.5417H105.375V38.0558H114.874V28.5417Z" fill="black"/>
<path d="M114.874 19.0301H105.375V28.5441H114.874V19.0301Z" fill="black"/>
<path d="M105.376 95.1392H95.8765V104.653H105.376V95.1392Z" fill="black"/>
<path d="M105.376 85.6284H95.8765V95.1424H105.376V85.6284Z" fill="black"/>
<path d="M105.376 57.0839H95.8765V66.5979H105.376V57.0839Z" fill="black"/>
<path d="M105.376 47.5696H95.8765V57.0836H105.376V47.5696Z" fill="black"/>
<path d="M105.376 19.0301H95.8765V28.5441H105.376V19.0301Z" fill="black"/>
<path d="M105.376 9.5144H95.8765V19.0284H105.376V9.5144Z" fill="black"/>
<path d="M95.8736 104.656H86.374V114.17H95.8736V104.656Z" fill="black"/>
<path d="M95.8736 95.1392H86.374V104.653H95.8736V95.1392Z" fill="black"/>
<path d="M95.8736 66.5995H86.374V76.1136H95.8736V66.5995Z" fill="black"/>
<path d="M95.8736 57.0839H86.374V66.5979H95.8736V57.0839Z" fill="black"/>
<path d="M95.8736 47.5696H86.374V57.0836H95.8736V47.5696Z" fill="black"/>
<path d="M95.8736 38.0551H86.374V47.5691H95.8736V38.0551Z" fill="black"/>
<path d="M95.8736 9.5144H86.374V19.0284H95.8736V9.5144Z" fill="black"/>
<path d="M95.8736 0H86.374V9.514H95.8736V0Z" fill="black"/>
<path d="M86.3765 104.656H76.877V114.17H86.3765V104.656Z" fill="black"/>
<path d="M86.3765 76.1113H76.877V85.6253H86.3765V76.1113Z" fill="black"/>
<path d="M86.3765 66.5995H76.877V76.1136H86.3765V66.5995Z" fill="black"/>
<path d="M86.3765 38.0551H76.877V47.5691H86.3765V38.0551Z" fill="black"/>
<path d="M86.3765 28.5417H76.877V38.0558H86.3765V28.5417Z" fill="black"/>
<path d="M86.3765 0H76.877V9.514H86.3765V0Z" fill="black"/>
<path d="M76.8746 85.6284H67.375V95.1424H76.8746V85.6284Z" fill="black"/>
<path d="M76.8746 76.1113H67.375V85.6253H76.8746V76.1113Z" fill="black"/>
<path d="M76.8746 28.5417H67.375V38.0558H76.8746V28.5417Z" fill="black"/>
<path d="M76.8746 19.0301H67.375V28.5441H76.8746V19.0301Z" fill="black"/>
<path d="M67.3775 95.1392H57.8779V104.653H67.3775V95.1392Z" fill="black"/>
<path d="M67.3775 85.6284H57.8779V95.1424H67.3775V85.6284Z" fill="black"/>
<path d="M67.3775 57.0839H57.8779V66.5979H67.3775V57.0839Z" fill="black"/>
<path d="M67.3775 47.5696H57.8779V57.0836H67.3775V47.5696Z" fill="black"/>
<path d="M67.3775 19.0301H57.8779V28.5441H67.3775V19.0301Z" fill="black"/>
<path d="M67.3775 9.5144H57.8779V19.0284H67.3775V9.5144Z" fill="black"/>
<path d="M57.876 104.656H48.3765V114.17H57.876V104.656Z" fill="black"/>
<path d="M57.876 95.1392H48.3765V104.653H57.876V95.1392Z" fill="black"/>
<path d="M57.876 66.5995H48.3765V76.1136H57.876V66.5995Z" fill="black"/>
<path d="M57.876 57.0839H48.3765V66.5979H57.876V57.0839Z" fill="black"/>
<path d="M57.876 47.5696H48.3765V57.0836H57.876V47.5696Z" fill="black"/>
<path d="M57.876 38.0551H48.3765V47.5691H57.876V38.0551Z" fill="black"/>
<path d="M57.876 9.5144H48.3765V19.0284H57.876V9.5144Z" fill="black"/>
<path d="M57.876 0H48.3765V9.514H57.876V0Z" fill="black"/>
<path d="M48.3785 104.656H38.8789V114.17H48.3785V104.656Z" fill="black"/>
<path d="M48.3785 76.1113H38.8789V85.6253H48.3785V76.1113Z" fill="black"/>
<path d="M48.3785 66.5995H38.8789V76.1136H48.3785V66.5995Z" fill="black"/>
<path d="M48.3785 38.0551H38.8789V47.5691H48.3785V38.0551Z" fill="black"/>
<path d="M48.3785 28.5417H38.8789V38.0558H48.3785V28.5417Z" fill="black"/>
<path d="M48.3785 0H38.8789V9.514H48.3785V0Z" fill="black"/>
<path d="M38.8794 85.6284H29.3799V95.1424H38.8794V85.6284Z" fill="black"/>
<path d="M38.8794 76.1113H29.3799V85.6253H38.8794V76.1113Z" fill="black"/>
<path d="M38.8794 28.5417H29.3799V38.0558H38.8794V28.5417Z" fill="black"/>
<path d="M38.8794 19.0301H29.3799V28.5441H38.8794V19.0301Z" fill="black"/>
<path d="M29.3785 95.1392H19.8789V104.653H29.3785V95.1392Z" fill="black"/>
<path d="M29.3785 85.6284H19.8789V95.1424H29.3785V85.6284Z" fill="black"/>
<path d="M29.3785 19.0301H19.8789V28.5441H29.3785V19.0301Z" fill="black"/>
<path d="M29.3785 9.5144H19.8789V19.0284H29.3785V9.5144Z" fill="black"/>
<path d="M19.878 104.656H10.3784V114.17H19.878V104.656Z" fill="black"/>
<path d="M19.878 95.1392H10.3784V104.653H19.878V95.1392Z" fill="black"/>
<path d="M19.878 9.5144H10.3784V19.0284H19.878V9.5144Z" fill="black"/>
<path d="M19.878 0H10.3784V9.514H19.878V0Z" fill="black"/>
<path d="M10.3794 104.656H0.879883V114.17H10.3794V104.656Z" fill="black"/>
<path d="M10.3794 0H0.879883V9.514H10.3794V0Z" fill="black"/>
</svg>