<svg width="462" height="359" viewBox="0 0 462 359" fill="none" xmlns="http://www.w3.org/2000/svg">
<mask id="path-1-outside-1_1386_10816" maskUnits="userSpaceOnUse" x="0" y="0" width="462" height="359" fill="black">
<rect fill="white" width="462" height="359"/>
<path d="M458 137.587V154.564V171.039V171.263V221.413V254.81H440.559V304.905H423.117V321.603H318.178V304.905H300.736V288.207H283.586V355H248.645H231.146H213.413V321.324H230.913V304.626H248.412V288.207H230.971H213.763H196.38V321.603V355H161.439H143.764H126.148V321.324H143.647V304.626H161.205V288.207H143.647V271.508V254.81H126.206V221.413H91.5566H74.1154H73.8236H38.941V204.715H21.4996V187.737H38.941V171.039H56.3822V154.285H74.1154V171.263V187.737H91.3234V171.039H108.765V154.285V121.168H74.1154H73.8236H21.4996V104.19V87.7709H4V71.0726V70.7934V54.095H21.4413V37.3967H38.8826V20.6984H73.7654V4H91.265H91.4984H143.589H161.322V20.6984H178.763V37.3967H196.205V70.7934V71.0726V87.4917H213.646H231.087V104.19H248.587V121.168V154.285H283.47V171.039H300.911V187.737H318.353V204.436H335.794V221.134V254.531H387.826V237.832H405.268V221.134V187.737H422.709V171.039V154.564H405.268V121.168H423.001H440.442V137.587H457.883H458ZM39.291 204.436H56.4407V188.017H39.291V204.436Z"/>
</mask>
<path d="M458 137.587V154.564V171.039V171.263V221.413V254.81H440.559V304.905H423.117V321.603H318.178V304.905H300.736V288.207H283.586V355H248.645H231.146H213.413V321.324H230.913V304.626H248.412V288.207H230.971H213.763H196.38V321.603V355H161.439H143.764H126.148V321.324H143.647V304.626H161.205V288.207H143.647V271.508V254.81H126.206V221.413H91.5566H74.1154H73.8236H38.941V204.715H21.4996V187.737H38.941V171.039H56.3822V154.285H74.1154V171.263V187.737H91.3234V171.039H108.765V154.285V121.168H74.1154H73.8236H21.4996V104.19V87.7709H4V71.0726V70.7934V54.095H21.4413V37.3967H38.8826V20.6984H73.7654V4H91.265H91.4984H143.589H161.322V20.6984H178.763V37.3967H196.205V70.7934V71.0726V87.4917H213.646H231.087V104.19H248.587V121.168V154.285H283.47V171.039H300.911V187.737H318.353V204.436H335.794V221.134V254.531H387.826V237.832H405.268V221.134V187.737H422.709V171.039V154.564H405.268V121.168H423.001H440.442V137.587H457.883H458ZM39.291 204.436H56.4407V188.017H39.291V204.436Z" fill="black"/>
<path d="M458 137.587V154.564V171.039V171.263V221.413V254.81H440.559V304.905H423.117V321.603H318.178V304.905H300.736V288.207H283.586V355H248.645H231.146H213.413V321.324H230.913V304.626H248.412V288.207H230.971H213.763H196.38V321.603V355H161.439H143.764H126.148V321.324H143.647V304.626H161.205V288.207H143.647V271.508V254.81H126.206V221.413H91.5566H74.1154H73.8236H38.941V204.715H21.4996V187.737H38.941V171.039H56.3822V154.285H74.1154V171.263V187.737H91.3234V171.039H108.765V154.285V121.168H74.1154H73.8236H21.4996V104.19V87.7709H4V71.0726V70.7934V54.095H21.4413V37.3967H38.8826V20.6984H73.7654V4H91.265H91.4984H143.589H161.322V20.6984H178.763V37.3967H196.205V70.7934V71.0726V87.4917H213.646H231.087V104.19H248.587V121.168V154.285H283.47V171.039H300.911V187.737H318.353V204.436H335.794V221.134V254.531H387.826V237.832H405.268V221.134V187.737H422.709V171.039V154.564H405.268V121.168H423.001H440.442V137.587H457.883H458ZM39.291 204.436H56.4407V188.017H39.291V204.436Z" stroke="white" stroke-width="8" mask="url(#path-1-outside-1_1386_10816)"/>
</svg>
