<svg xmlns="http://www.w3.org/2000/svg" width="111" height="111" viewBox="0 0 111 111" fill="none">
<rect x="23.7737" width="90" height="90" rx="16" transform="rotate(15.3165 23.7737 0)" fill="#B6A4FF"/>
<path d="M58.5934 69.3697L59.2908 66.8236L56.7446 66.1263L56.0473 68.6724L43.3759 65.202L44.0732 62.6558L41.5271 61.9585L43.6191 54.3201L46.1652 55.0175L46.8625 52.4713L59.534 55.9418L58.8366 58.4879L61.3827 59.1852L62.0801 56.6391L79.8438 61.5042L79.1464 64.0503L81.6926 64.7476L83.0872 59.6554L72.9619 56.8823L73.643 54.3954L71.0969 53.698L70.3996 56.2442L55.182 52.0764L55.8793 49.5303L53.3332 48.8329L54.0306 46.2868L56.5767 46.9841L57.274 44.438L72.5508 48.622L71.8534 51.1681L74.3404 51.8492L76.4324 44.2109L73.8862 43.5135L73.1889 46.0597L57.9713 41.8919L58.6687 39.3458L56.1225 38.6484L55.4252 41.1946L35.1154 35.6321L34.4181 38.1783L31.8719 37.4809L29.7799 45.1193L32.3261 45.8166L31.6287 48.3628L34.1749 49.0601L33.4775 51.6062L36.0237 52.3036L36.721 49.7574L41.8133 51.1521L41.1159 53.6982L38.5698 53.0009L36.4778 60.6393L39.0239 61.3366L38.3428 63.8235L33.2506 62.4289L33.9479 59.8827L31.4018 59.1854L30.7044 61.7315L28.1583 61.0342L27.461 63.5803L24.9149 62.883L22.8229 70.5214L25.369 71.2187L24.6717 73.7648L75.4758 87.679L76.8705 82.5868L74.3243 81.8894L73.627 84.4356L53.3172 78.8731L54.0145 76.327L51.4684 75.6297L52.1657 73.0835L54.7118 73.7809L55.4092 71.2347L75.719 76.7972L75.0217 79.3433L77.5678 80.0406L79.6598 72.4022L77.1137 71.7049L76.4163 74.251L58.5934 69.3697ZM40.6026 45.3463L35.5103 43.9516L36.2077 41.4055L41.2999 42.8002L40.6026 45.3463ZM47.0735 71.6889L44.5273 70.9916L43.83 73.5377L46.3761 74.235L45.6788 76.7811L43.1327 76.0838L43.83 73.5377L41.2839 72.8403L41.9812 70.2942L44.5273 70.9916L45.2247 68.4454L47.7708 69.1428L47.0735 71.6889Z" fill="black"/>
<path d="M79.2051 64.0665L76.6589 63.3691L74.5669 71.0075L77.1131 71.7049L79.2051 64.0665Z" fill="black"/>
<path d="M75.0222 79.3456L57.2585 74.4805L56.5612 77.0266L74.3249 81.8917L75.0222 79.3456Z" fill="black"/>
<path d="M72.7187 67.7659L62.5342 64.9766L61.8368 67.5227L71.9621 70.2958L72.6595 67.7497L72.7187 67.7659Z" fill="black"/>
<path d="M74.114 62.6721L63.9294 59.8828L63.2321 62.4289L73.3574 65.202L74.0547 62.6559L74.114 62.6721Z" fill="black"/>
<path d="M71.7923 51.154L59.1208 47.6836L58.4235 50.2297L71.0949 53.7002L71.7923 51.154Z" fill="black"/>
<path d="M74.5821 40.9665L61.9106 37.4961L61.2133 40.0422L73.8847 43.5127L74.5821 40.9665Z" fill="black"/>
<path d="M58.8945 58.504L56.3484 57.8066L54.2564 65.445L56.8025 66.1424L58.8945 58.504Z" fill="black"/>
<path d="M56.8205 36.1036L54.2744 35.4062L53.5771 37.9524L56.1232 38.6497L56.8205 36.1036Z" fill="black"/>
<path d="M44.0883 32.6154L38.9961 31.2207L38.2988 33.7668L43.391 35.1615L44.0883 32.6154Z" fill="black"/>
<path d="M57.5166 33.5572L56.8193 36.1033L59.3654 36.8006L60.0628 34.2545L75.3395 38.4385L74.6422 40.9846L77.1291 41.6657L78.5076 36.6327L37.8879 25.5078L37.1906 28.0539L57.5004 33.6164L57.5166 33.5572Z" fill="black"/>
<path d="M33.4936 51.5469L30.9475 50.8496L28.8555 58.488L31.4016 59.1853L33.4936 51.5469Z" fill="black"/>
<path d="M37.2075 27.9923L34.6614 27.2949L32.5694 34.9333L35.1155 35.6306L37.2075 27.9923Z" fill="black"/>
</svg>