<svg width="129" height="86" viewBox="0 0 129 86" fill="none" xmlns="http://www.w3.org/2000/svg">
<path fillRule="evenodd" clipRule="evenodd" d="M48.9189 6.05589V0H63.7164H64.1898H78.9873V6.05589H85.0703V12.1118H72.9043V6.05589H64.1264H63.7798H55.0019V12.1118H42.8359V6.05589H48.9189ZM91.2806 30.4069H110V36.4621H116.083V30.4062H110.055V24.3511H97.3636V18.2891H91.2812V12.2422H85.1982V18.2981H91.2806V30.4069ZM116.086 36.4608H122.169V42.5167H116.086V36.4608ZM128.247 42.5197H122.164V66.8672H116.086V72.9231H122.169V66.8694H128.247V42.5197ZM116.083 72.9258H110V78.9766H12.2969V85.1586H110.005V78.9817H116.083V72.9258ZM85.1953 30.4062H91.2783V36.4621H85.1953V30.4062ZM85.1846 36.4608H79.1016V42.5167H85.1846V36.4608ZM42.8359 42.5197H48.9189V48.5755H42.8359V42.5197ZM36.625 36.4646H12.2969V30.4087H30.5459V18.2969H36.625V12.2422H42.708V18.2981H36.6289V36.4608H42.708V42.5167H36.625V36.4646ZM6.08594 72.9258H12.1689V78.9817H6.08594V72.9258ZM12.1689 36.4608H6.08594V42.5167H12.1689V36.4608ZM0 42.5197H6.083V72.9253H0V42.5197Z" fill="black"/>
</svg>
