<svg xmlns="http://www.w3.org/2000/svg" width="111" height="111" viewBox="0 0 111 111" fill="none">
<rect y="23.293" width="90" height="90" rx="16" transform="rotate(-15 0 23.293)" fill="#FFE601"/>
<path fillRule="evenodd" clip-rule="evenodd" d="M60.864 20.2956L33.3439 27.6696L34.1002 30.4922L61.6203 23.1182L60.864 20.2956ZM40.5288 54.4843L34.8566 33.3152L34.1003 30.4926L34.1002 30.4924L31.2776 31.2487L31.2777 31.2489L22.8105 33.5177L22.8105 33.5175L19.9879 34.2738L19.988 34.274L19.9874 34.2742L20.7437 37.0967L20.7443 37.0966L24.1476 49.798L26.9702 49.0417L23.5669 36.3403L32.034 34.0715L37.7063 55.2407L40.5288 54.4843ZM62.3904 37.2822L59.5542 26.6975L56.7316 27.4538L59.5678 38.0385L62.3904 37.2822ZM27.7265 51.8634L30.5491 51.1071L29.7928 48.2845L26.9702 49.0408L27.7265 51.8634ZM63.5248 41.5161L60.7022 42.2724L59.9459 39.4498L62.7685 38.6935L63.5248 41.5161ZM31.3046 53.9316L34.1272 53.1753L33.3709 50.3528L30.5483 51.1091L31.3046 53.9316ZM44.1079 56.5504L41.2853 57.3067L40.529 54.4841L43.3516 53.7278L44.1079 56.5504ZM68.8053 49.9327L65.9827 50.6891L65.2264 47.8665L68.049 47.1102L68.8053 49.9327ZM47.687 58.6168L44.8645 59.3731L44.1082 56.5506L46.9307 55.7942L47.687 58.6168ZM52.8057 89.0103L54.9222 88.4431L55.6283 88.254L71.8577 83.9053L71.1014 81.0827L54.872 85.4314L53.1703 79.0806L50.3477 79.8369L52.8057 89.0103ZM74.6803 83.149L71.8577 83.9053L69.3997 74.7319L72.2223 73.9756L74.6803 83.149ZM63.9177 54.2678L66.7403 53.5115L65.984 50.6889L63.1614 51.4452L63.9177 54.2678ZM48.4436 61.4396L51.2662 60.6832L50.5099 57.8607L47.6873 58.617L48.4436 61.4396ZM55.9928 78.3232L53.1702 79.0795L52.4139 76.2569L55.2365 75.5006L55.9928 78.3232ZM64.6739 57.0907L61.8513 57.847L61.095 55.0244L63.9176 54.2681L64.6739 57.0907ZM66.5779 75.4869L69.4005 74.7306L68.6442 71.908L65.8216 72.6643L66.5779 75.4869ZM55.2366 75.5003L58.0592 74.744L54.0886 59.9255L51.266 60.6818L55.2366 75.5003ZM62.9987 73.4205L65.8213 72.6642L61.8507 57.8456L59.0281 58.6019L62.9987 73.4205ZM34.8834 55.9966L37.706 55.2403L36.9496 52.4178L34.1271 53.1741L34.8834 55.9966ZM61.6206 23.1183L61.6207 23.1186L62.377 25.9411L68.0492 47.1103L70.8718 46.354L65.1996 25.1848L73.6667 22.9161L77.07 35.6175L79.8926 34.8612L76.4893 22.1598L76.4899 22.1596L75.7336 19.337L75.733 19.3372L75.7329 19.337L72.9103 20.0933L72.9104 20.0935L64.4433 22.3622L64.4432 22.362L61.6206 23.1183ZM77.8259 38.4393L75.0034 39.1956L74.247 36.373L77.0696 35.6167L77.8259 38.4393ZM72.9387 42.7758L75.7613 42.0195L75.005 39.1969L72.1824 39.9532L72.9387 42.7758ZM73.6945 45.5972L70.8719 46.3535L70.1156 43.531L72.9382 42.7747L73.6945 45.5972Z" fill="black"/>
</svg>