<svg xmlns="http://www.w3.org/2000/svg" width="56" height="42" viewBox="0 0 56 42" fill="none">
<path d="M16.3598 41.7395V39.8125H10.4688V41.7395H16.3598Z" fill="black"/>
<path d="M10.4673 39.8102V37.8281H8.54028V39.8102H10.4673Z" fill="black"/>
<path d="M18.3401 39.8102V37.8281H16.358V39.8102H18.3401Z" fill="black"/>
<path d="M8.53794 37.8293V35.9023H6.55591V37.8293H8.53794Z" fill="black"/>
<path d="M20.268 37.8293V35.9023H18.3411V37.8293H20.268Z" fill="black"/>
<path d="M6.55844 35.8485V31.9395H4.63147V35.8485H6.55844Z" fill="black"/>
<path d="M22.1938 35.8485V31.9395H20.2668V35.8485H22.1938Z" fill="black"/>
<path d="M4.63047 31.9403V28.0312H2.64844V31.9403H4.63047Z" fill="black"/>
<path d="M24.1773 31.9403V28.0312H22.1953V31.9403H24.1773Z" fill="black"/>
<path d="M15.2585 28.0286V26.0466H17.1854V24.1196H19.1124V18.2836H17.1854V16.3016H15.2585V14.3746H13.2764V12.3926H7.38541V14.3196H5.45844V16.2465H3.47641V18.2286H1.54944V24.1196H3.47641V26.0466H5.45844V28.0286H7.38541V30.0106H13.2764V28.0836H15.2585V28.0286ZM9.36744 24.1196V22.1376H7.44047V20.2106H9.36744V18.2836H11.3495V20.2106H13.2764V22.1376H11.3495V24.1196H9.36744Z" fill="black"/>
<path d="M2.64866 28.029V14.375H0.666626V28.084H2.64866V28.029Z" fill="black"/>
<path d="M26.1574 28.029V14.375H24.2305V28.084H26.1574V28.029Z" fill="black"/>
<path d="M4.63047 14.3738V10.4648H2.64844V14.3738H4.63047Z" fill="black"/>
<path d="M24.1773 14.3738V10.4648H22.1953V14.3738H24.1773Z" fill="black"/>
<path d="M6.55844 10.4676V6.55859H4.63147V10.4676H6.55844Z" fill="black"/>
<path d="M22.1938 10.4676V6.55859H20.2668V10.4676H22.1938Z" fill="black"/>
<path d="M8.53794 6.55588V4.62891H6.55591V6.55588H8.53794Z" fill="black"/>
<path d="M20.268 6.55588V4.62891H18.3411V6.55588H20.268Z" fill="black"/>
<path d="M10.4673 4.57736V2.65039H8.54028V4.57736H10.4673Z" fill="black"/>
<path d="M18.3401 4.57736V2.65039H16.358V4.57736H18.3401Z" fill="black"/>
<path d="M16.3598 2.64804V0.666016H10.4688V2.64804H16.3598Z" fill="black"/>
<path d="M46.257 41.7395V39.8125H40.366V41.7395H46.257Z" fill="black"/>
<path d="M40.3645 39.8102V37.8281H38.4375V39.8102H40.3645Z" fill="black"/>
<path d="M48.18 39.8102V37.8281H46.198V39.8102H48.18Z" fill="black"/>
<path d="M38.4352 37.8293V35.9023H36.4531V37.8293H38.4352Z" fill="black"/>
<path d="M50.1644 37.8293V35.9023H48.1824V37.8293H50.1644Z" fill="black"/>
<path d="M36.4557 35.8485V31.9395H34.5287V35.8485H36.4557Z" fill="black"/>
<path d="M52.091 35.8485V31.9395H50.1641V35.8485H52.091Z" fill="black"/>
<path d="M34.5285 31.9403V28.0312H32.6016V31.9403H34.5285Z" fill="black"/>
<path d="M54.0746 31.9403V28.0312H52.0925V31.9403H54.0746Z" fill="black"/>
<path d="M45.1006 28.0286V26.0466H47.0827V24.1196H49.0096V18.2836H47.0827V16.3016H45.1557V14.3746H43.1737V12.3926H37.2826V14.3196H35.3557V16.2465H33.3736V18.2286H31.4467V24.1196H33.3736V26.0466H35.3557V28.0286H37.2826V30.0106H43.1737V28.0836H45.1006V28.0286ZM39.2647 24.1196V22.1376H37.3377V20.2106H39.2647V18.2836H41.2467V20.2106H43.1737V22.1376H41.2467V24.1196H39.2647Z" fill="black"/>
<path d="M32.5459 28.029V14.375H30.5638V28.084H32.5459V28.029Z" fill="black"/>
<path d="M56 28.029V14.375H54.073V28.084H56V28.029Z" fill="black"/>
<path d="M34.5285 14.3738V10.4648H32.6016V14.3738H34.5285Z" fill="black"/>
<path d="M54.0746 14.3738V10.4648H52.0925V14.3738H54.0746Z" fill="black"/>
<path d="M36.4557 10.4676V6.55859H34.5287V10.4676H36.4557Z" fill="black"/>
<path d="M52.091 10.4676V6.55859H50.1641V10.4676H52.091Z" fill="black"/>
<path d="M38.4352 6.55588V4.62891H36.4531V6.55588H38.4352Z" fill="black"/>
<path d="M50.1644 6.55588V4.62891H48.1824V6.55588H50.1644Z" fill="black"/>
<path d="M40.3645 4.57736V2.65039H38.4375V4.57736H40.3645Z" fill="black"/>
<path d="M48.18 4.57736V2.65039H46.198V4.57736H48.18Z" fill="black"/>
<path d="M46.257 2.64804V0.666016H40.366V2.64804H46.257Z" fill="black"/>
</svg>