<svg xmlns="http://www.w3.org/2000/svg" width="100" height="113" viewBox="0 0 100 113" fill="none">
<path d="M80.8359 88.8992H76.0853V93.7437H71.2187V98.4729H66.4681V103.317H61.6016V108.047H76.0853V103.317H80.8359V98.4729H85.5866V84.0547H80.8359V88.8992Z" fill="black"/>
<path d="M75.9661 55.3337H80.7168V17.0391H71.0996V21.7682H75.9661V55.3337Z" fill="black"/>
<path d="M75.9661 55.332H71.0996V60.0612H75.9661V55.332Z" fill="black"/>
<path d="M71.1022 21.7676H66.3516V26.6121H71.1022V21.7676Z" fill="black"/>
<path d="M66.3535 98.4715V93.7424H71.1042V88.8979H75.9707V84.1687H80.7213V79.3242H66.3535V84.0534H61.487V88.7825H56.7363V103.201H61.487V98.3562H66.3535V98.4715Z" fill="black"/>
<path d="M71.0976 60.1797H61.4805V65.0242H71.0976V60.1797Z" fill="black"/>
<path d="M66.347 26.6152H61.4805V31.3444H66.347V26.6152Z" fill="black"/>
<path d="M61.483 64.9082H37.498V69.6374H47.1152V112.777H51.9817V69.7527H61.5989V64.9082H61.483Z" fill="black"/>
<path d="M61.487 21.7676H56.7363V26.6121H61.487V21.7676Z" fill="black"/>
<path d="M56.7356 17.0391H42.252V21.7682H56.7356V17.0391Z" fill="black"/>
<path d="M42.2487 21.7676H37.498V26.6121H42.2487V21.7676Z" fill="black"/>
<path d="M37.5019 84.0534H32.6354V79.3242H18.2676V84.0534H23.0182V88.7825H27.8848V93.627H32.6354V98.3562H37.5019V103.201H42.2526V88.8979H37.5019V84.0534Z" fill="black"/>
<path d="M37.498 60.1797H27.8809V65.0242H37.498V60.1797Z" fill="black"/>
<path d="M37.4993 26.6152H32.6328V31.3444H37.4993V26.6152Z" fill="black"/>
<path d="M32.6321 98.4728H27.8815V93.7436H23.015V88.8991H18.2643V84.1699H13.5137V98.5881H18.2643V103.433H23.015V108.162H37.4987V103.433H32.6321V98.4728Z" fill="black"/>
<path d="M32.6315 21.7676H27.8809V26.6121H32.6315V21.7676Z" fill="black"/>
<path d="M27.8821 55.332H23.0156V60.0612H27.8821V55.332Z" fill="black"/>
<path d="M23.0182 21.7682H27.8848V17.0391H18.2676V55.3337H23.0182V21.7682Z" fill="black"/>
</svg>