 <svg xmlns="http://www.w3.org/2000/svg" width="31.000000000000004" height="29.3"><rect width="14.98422712933754" height="18.138801261829656" x="7.097791798107256" y="5.520504731861199" fill="#fff" /><path fill="#fc3f1d" d="M14.68-0.07C6.58-0.07 0 6.48 0 14.53C0 22.60 6.58 29.13 14.68 29.13C22.75 29.13 29.33 22.60 29.33 14.53C29.33 6.48 22.75-0.07 14.68-0.07ZM16.57 23.20L16.57 8.18L15.23 8.18C12.75 8.18 11.45 9.43 11.45 11.28C11.45 13.38 12.35 14.35 14.20 15.60L15.73 16.63L11.33 23.20L8.05 23.20L12 17.33C9.73 15.70 8.45 14.13 8.45 11.45C8.45 8.10 10.78 5.83 15.20 5.83L19.60 5.83L19.60 23.20Z" /><path fill="#000" d="" /></svg>