<svg xmlns="http://www.w3.org/2000/svg" width="90" height="90" viewBox="0 0 90 90" fill="none">
<path d="M39.422 6.27696L34.4668 4.94922L33.1391 9.90442L38.0943 11.2322L39.422 6.27696Z" fill="black"/>
<path d="M33.141 9.90587L28.1858 8.57812L26.858 13.5333L31.8132 14.8611L33.141 9.90587Z" fill="black"/>
<path d="M26.859 13.5328L21.9038 12.2051L20.5761 17.1603L25.5313 18.488L26.859 13.5328Z" fill="black"/>
<path d="M44.4654 7.62852L39.5103 6.30078L38.1825 11.256L43.1377 12.5837L44.4654 7.62852Z" fill="black"/>
<path d="M49.421 8.95665L44.4658 7.62891L43.1381 12.5841L48.0933 13.9118L49.421 8.95665Z" fill="black"/>
<path d="M54.3754 10.2828L49.4202 8.95508L48.0924 13.9103L53.0476 15.238L54.3754 10.2828Z" fill="black"/>
<path d="M59.3297 11.6109L54.3745 10.2832L53.0468 15.2384L58.002 16.5661L59.3297 11.6109Z" fill="black"/>
<path d="M64.2882 12.941L59.333 11.6133L58.0053 16.5685L62.9605 17.8962L64.2882 12.941Z" fill="black"/>
<path d="M69.2411 14.2691L64.2859 12.9414L62.9581 17.8966L67.9133 19.2243L69.2411 14.2691Z" fill="black"/>
<path d="M74.1969 15.5953L69.2417 14.2676L67.914 19.2228L72.8692 20.5505L74.1969 15.5953Z" fill="black"/>
<path d="M77.9112 21.902L72.9561 20.5742L71.6283 25.5294L76.5835 26.8572L77.9112 21.902Z" fill="black"/>
<path d="M81.5392 28.1832L76.584 26.8555L75.2562 31.8107L80.2114 33.1384L81.5392 28.1832Z" fill="black"/>
<path d="M22.1168 70.8688L17.1616 69.541L15.8339 74.4962L20.7891 75.824L22.1168 70.8688Z" fill="black"/>
<path d="M18.4891 64.5856L13.5339 63.2578L12.2062 68.213L17.1614 69.5408L18.4891 64.5856Z" fill="black"/>
<path d="M14.8624 58.3024L9.90723 56.9746L8.57949 61.9298L13.5347 63.2575L14.8624 58.3024Z" fill="black"/>
<path d="M27.1591 72.2203L22.2039 70.8926L20.8761 75.8478L25.8313 77.1755L27.1591 72.2203Z" fill="black"/>
<path d="M32.1134 73.5484L27.1582 72.2207L25.8305 77.1759L30.7857 78.5036L32.1134 73.5484Z" fill="black"/>
<path d="M37.0677 74.8766L32.1125 73.5488L30.7848 78.504L35.74 79.8318L37.0677 74.8766Z" fill="black"/>
<path d="M42.0236 76.2027L37.0684 74.875L35.7406 79.8302L40.6958 81.1579L42.0236 76.2027Z" fill="black"/>
<path d="M46.9806 77.5309L42.0254 76.2031L40.6976 81.1583L45.6528 82.4861L46.9806 77.5309Z" fill="black"/>
<path d="M51.9362 78.859L46.981 77.5312L45.6532 82.4864L50.6084 83.8142L51.9362 78.859Z" fill="black"/>
<path d="M56.889 80.1871L51.9338 78.8594L50.6061 83.8146L55.5613 85.1423L56.889 80.1871Z" fill="black"/>
<path d="M83.86 39.4825L85.1877 34.5273L80.2325 33.1996L78.9048 38.1548L83.86 39.4825Z" fill="black"/>
<path d="M82.455 44.4298L83.7827 39.4746L78.8275 38.1469L77.4998 43.1021L82.455 44.4298Z" fill="black"/>
<path d="M81.1366 49.4005L82.4644 44.4453L77.5092 43.1176L76.1814 48.0728L81.1366 49.4005Z" fill="black"/>
<path d="M79.8197 54.3732L81.1475 49.418L76.1923 48.0902L74.8645 53.0454L79.8197 54.3732Z" fill="black"/>
<path d="M78.4987 59.3419L79.8264 54.3867L74.8712 53.059L73.5435 58.0142L78.4987 59.3419Z" fill="black"/>
<path d="M77.1815 64.3126L78.5093 59.3574L73.5541 58.0297L72.2263 62.9849L77.1815 64.3126Z" fill="black"/>
<path d="M75.8646 69.2853L77.1924 64.3301L72.2372 63.0023L70.9094 67.9575L75.8646 69.2853Z" fill="black"/>
<path d="M74.5436 74.256L75.8713 69.3008L70.9161 67.973L69.5884 72.9282L74.5436 74.256Z" fill="black"/>
<path d="M19.286 22.1661L20.6138 17.2109L15.6586 15.8832L14.3308 20.8384L19.286 22.1661Z" fill="black"/>
<path d="M17.8798 27.1134L19.2075 22.1582L14.2523 20.8305L12.9246 25.7857L17.8798 27.1134Z" fill="black"/>
<path d="M33.3959 68.5665L34.7236 63.6113L29.7684 62.2836L28.4407 67.2388L33.3959 68.5665Z" fill="black"/>
<path d="M28.424 67.2482L29.7517 62.293L24.7965 60.9652L23.4688 65.9204L28.424 67.2482Z" fill="black"/>
<path d="M24.8827 60.8966L26.2104 55.9414L21.2552 54.6137L19.9275 59.5689L24.8827 60.8966Z" fill="black"/>
<path d="M38.3651 69.8849L39.6929 64.9297L34.7377 63.6019L33.4099 68.5571L38.3651 69.8849Z" fill="black"/>
<path d="M71.1942 46.7638L72.522 41.8086L67.5668 40.4809L66.239 45.436L71.1942 46.7638Z" fill="black"/>
<path d="M61.2775 44.0392L62.6052 39.084L57.65 37.7562L56.3223 42.7114L61.2775 44.0392Z" fill="black"/>
<path d="M66.2467 45.3575L67.5745 40.4023L62.6193 39.0746L61.2915 44.0298L66.2467 45.3575Z" fill="black"/>
<path d="M36.422 37.4474L37.7498 32.4922L32.7946 31.1644L31.4668 36.1196L36.422 37.4474Z" fill="black"/>
<path d="M26.5053 34.7228L27.833 29.7676L22.8778 28.4398L21.5501 33.395L26.5053 34.7228Z" fill="black"/>
<path d="M31.473 36.0411L32.8008 31.0859L27.8456 29.7582L26.5178 34.7134L31.473 36.0411Z" fill="black"/>
<path d="M48.306 72.5236L49.6338 67.5684L44.6786 66.2406L43.3508 71.1958L48.306 72.5236Z" fill="black"/>
<path d="M53.2794 73.8419L54.6072 68.8867L49.652 67.559L48.3242 72.5142L53.2794 73.8419Z" fill="black"/>
<path d="M59.6561 70.213L60.9839 65.2578L56.0287 63.9301L54.7009 68.8853L59.6561 70.213Z" fill="black"/>
<path d="M26.1996 55.9239L27.5273 50.9688L22.5721 49.641L21.2444 54.5962L26.1996 55.9239Z" fill="black"/>
<path d="M27.518 50.9513L28.8457 45.9961L23.8905 44.6684L22.5628 49.6236L27.518 50.9513Z" fill="black"/>
<path d="M60.9733 65.2404L62.301 60.2852L57.3458 58.9574L56.0181 63.9126L60.9733 65.2404Z" fill="black"/>
<path d="M62.2902 60.2697L63.6179 55.3145L58.6627 53.9867L57.335 58.9419L62.2902 60.2697Z" fill="black"/>
<path d="M43.3356 71.2032L44.6633 66.248L39.7081 64.9203L38.3804 69.8755L43.3356 71.2032Z" fill="black"/>
<path d="M16.5629 32.0841L17.8906 27.1289L12.9354 25.8012L11.6077 30.7564L16.5629 32.0841Z" fill="black"/>
<path d="M15.2445 37.0568L16.5723 32.1016L11.6171 30.7738L10.2893 35.729L15.2445 37.0568Z" fill="black"/>
<path d="M13.9232 42.0275L15.251 37.0723L10.2958 35.7445L8.96803 40.6997L13.9232 42.0275Z" fill="black"/>
<path d="M12.6063 46.9962L13.9341 42.041L8.97888 40.7133L7.65114 45.6685L12.6063 46.9962Z" fill="black"/>
<path d="M11.2894 51.9689L12.6172 47.0137L7.66199 45.6859L6.33425 50.6411L11.2894 51.9689Z" fill="black"/>
<path d="M9.96816 56.9396L11.2959 51.9844L6.34069 50.6566L5.01295 55.6118L9.96816 56.9396Z" fill="black"/>
<path d="M68.1693 77.8849L69.4971 72.9297L64.5419 71.6019L63.2141 76.5571L68.1693 77.8849Z" fill="black"/>
<path d="M61.8778 81.5372L63.2056 76.582L58.2504 75.2543L56.9226 80.2095L61.8778 81.5372Z" fill="black"/>
</svg>