<svg width="1406" height="144" viewBox="0 0 1406 144" fill="none" xmlns="http://www.w3.org/2000/svg">
<path d="M673.245 72.9041H654.418C654.418 85.6788 651.156 100.081 645.005 109.803C630.885 101.528 619.482 89.1039 610.068 77.5843C630.521 71.4682 655.317 61.0229 655.317 35.1118C655.317 15.3169 641.197 0.0212735 616.583 0.0212735C590.161 0.0212735 576.222 18.3803 576.222 37.8136C576.222 48.2482 579.121 59.2253 585.272 71.1065C570.435 79.2011 563.193 91.6248 563.193 105.484C563.193 129.066 585.272 144 611.876 144C624.188 144 636.672 139.139 647.711 129.779C661.65 137.692 677.214 141.66 692.96 141.66V126.003C683.729 125.641 668.528 122.939 660.195 117.727C668.699 104.591 672.86 88.2104 673.224 72.9148L673.245 72.9041ZM616.112 15.6785C629.109 15.7104 636.683 25.592 636.683 35.1118C636.683 49.3331 619.492 57.7893 601.746 64.4479C597.039 55.0876 594.867 46.8122 594.867 38.356C594.867 27.4108 602.067 15.7424 616.112 15.6785ZM611.887 128.343C596.14 128.343 581.838 121.323 581.838 105.484C581.838 98.8258 584.192 89.8272 593.423 84.0727C603.564 97.9324 617.139 110.707 632.703 121.152C627.087 125.652 620.573 128.353 611.887 128.353V128.343Z" fill="black"/>
<path d="M743.793 0.0106367C731.481 0.0106367 718.997 4.87162 707.958 14.2319C694.019 6.31822 678.455 2.35072 662.709 2.35072V18.008C671.94 18.3696 687.141 21.0714 695.474 26.2834C686.97 39.4197 682.809 55.8003 682.445 71.0959H701.272C701.272 58.3212 704.534 43.919 710.685 34.1971C724.806 42.4725 736.209 54.8961 745.622 66.4157C725.169 72.5318 700.373 82.9771 700.373 108.888C700.373 128.683 714.494 143.979 739.108 143.979C765.53 143.979 779.468 125.62 779.468 106.186C779.468 95.7518 776.569 84.7747 770.418 72.8935C785.255 64.7989 792.497 52.3752 792.497 38.5156C792.497 14.934 770.418 0 743.814 0L743.793 0.0106367ZM739.568 128.332C726.571 128.3 718.997 118.419 718.997 108.899C718.997 94.6775 736.187 86.2213 753.934 79.5627C758.641 88.923 760.812 97.1984 760.812 105.655C760.812 116.6 753.613 128.268 739.568 128.332ZM762.256 59.9486C752.115 46.0889 738.541 33.3142 722.976 22.869C728.592 18.3696 735.107 15.6679 743.793 15.6679C759.539 15.6679 773.841 22.6881 773.841 38.5262C773.841 45.1848 771.488 54.1835 762.256 59.938V59.9486Z" fill="black"/>
<path d="M1406 126.843L1368.71 69.5642L1404 17.157H1384.74L1358.72 56.3853L1333.13 17.157H1310.8L1345.55 69.8514L1307.25 126.843H1326.51L1355.53 83.4132L1383.82 126.843H1406Z" fill="black"/>
<path d="M1195.83 29.4212C1190.19 25.1346 1183.55 22.018 1175.96 20.0715C1168.35 18.1356 1160.19 17.157 1151.46 17.157H1120.64V126.843H1151.3C1163.22 126.843 1173.9 124.694 1183.35 120.408C1192.8 116.121 1200.24 109.835 1205.69 101.57C1211.13 93.199 1213.86 82.9877 1213.86 70.9363C1213.86 61.2356 1212.26 52.9603 1209.08 46.1208C1205.9 39.2814 1201.48 33.7078 1195.83 29.4212ZM1188.28 93.1458C1184.78 98.8684 1179.96 103.155 1173.8 106.016C1167.64 108.771 1160.55 110.154 1152.54 110.154H1139.75V34.0163H1152.84C1160.65 34.0163 1167.58 35.2927 1173.65 37.8455C1179.81 40.2919 1184.69 44.2807 1188.28 49.7905C1191.88 55.2046 1193.67 62.4057 1193.67 71.3937C1193.67 80.3817 1191.88 87.4233 1188.28 93.1458Z" fill="black"/>
<path d="M1082.96 99.2088L1031.65 17.157H1009.16V126.843H1027.03V44.185L1078.49 126.843H1100.83V17.157H1082.96V99.2088Z" fill="black"/>
<path d="M1247.63 78.2757H1291.99V61.7356H1247.63V33.8567H1300.16V17.157H1228.52V126.843H1300.93V110.292H1247.63V78.2757Z" fill="black"/>
<path d="M937.883 17.157V17.1783L937.423 17.157L894.902 126.843H912.156L922.768 99.4215H968.134L978.863 126.843H998.279L955.298 17.157H937.883ZM929.229 82.7218L945.328 41.1322L961.598 82.7218H929.229Z" fill="black"/>
<path d="M909.161 17.157H890.826L863.88 64.1714L837.062 17.157H816.107L853.236 80.8285V126.843H872.341V81.4454L909.161 17.157Z" fill="black"/>
<path d="M93.0544 17.157H74.7195L47.7734 64.1714L20.9557 17.157H0L37.1297 80.8285V126.843H56.2348V81.4454L93.0544 17.157Z" fill="black"/>
<path d="M183.862 30.6231C178.728 25.7196 172.823 21.9968 166.148 19.4439C159.58 16.8911 152.637 15.6147 145.353 15.6147C138.068 15.6147 131.125 16.9443 124.557 19.5929C117.979 22.1457 112.127 25.8792 106.993 30.7721C101.858 35.6756 97.8039 41.6002 94.8194 48.546C91.9418 55.4918 90.5084 63.2992 90.5084 71.9894C90.5084 80.6796 91.9418 88.4869 94.8194 95.4327C97.7932 102.379 101.858 108.303 106.993 113.207C112.127 118.11 117.979 121.886 124.557 124.545C131.136 127.098 138.068 128.375 145.353 128.375C152.637 128.375 159.58 127.045 166.148 124.397C172.823 121.737 178.728 117.961 183.862 113.058C188.997 108.059 193.008 102.081 195.875 95.1349C198.849 88.0934 200.347 80.2222 200.347 71.5426C200.347 62.8631 198.86 55.0983 195.875 48.2588C192.998 41.313 188.997 35.4416 183.862 30.6444V30.6231ZM175.23 93.5819C171.839 99.4002 167.474 103.846 162.136 106.91C156.799 109.867 151.204 111.356 145.342 111.356C139.48 111.356 134.046 109.877 128.708 106.91C123.37 103.846 118.952 99.4002 115.454 93.5819C112.063 87.6573 110.373 80.4562 110.373 71.9787C110.373 63.5013 112.063 56.2045 115.454 50.3755C118.941 44.5573 123.359 40.1643 128.708 37.1966C134.046 34.1333 139.598 32.6016 145.342 32.6016C151.086 32.6016 156.799 34.1333 162.136 37.1966C167.474 40.1536 171.839 44.5466 175.23 50.3755C178.621 56.1938 180.311 63.3949 180.311 71.9787C180.311 80.5626 178.621 87.6573 175.23 93.5819Z" fill="black"/>
<path d="M283.913 81.0412C283.913 87.6785 282.682 93.199 280.211 97.5813C277.847 101.974 274.66 105.293 270.659 107.537C266.658 109.782 262.294 110.909 257.566 110.909C252.837 110.909 248.377 109.782 244.472 107.537C240.675 105.293 237.647 101.974 235.38 97.5813C233.123 93.0926 231.989 87.5722 231.989 81.0412V16.4018H212.884V82.424C212.884 92.5395 214.734 100.964 218.425 107.697C222.222 114.334 227.41 119.333 233.989 122.705C240.664 125.971 248.27 127.609 256.795 127.609C265.321 127.609 273.387 125.875 280.062 122.397C286.844 118.929 292.128 113.77 295.925 106.92C299.723 99.9746 301.627 91.4971 301.627 81.488V16.4018H283.913V81.0519V81.0412Z" fill="black"/>
<path d="M474.557 84.2535H508.349C508.028 89.9654 506.83 94.7732 504.755 98.6556C502.294 103.144 498.85 106.474 494.432 108.612C490.121 110.654 485.083 111.675 479.338 111.675C472.867 111.675 467.015 110.196 461.774 107.229C456.639 104.165 452.531 99.8789 449.451 94.3584C446.477 88.7422 444.979 81.9985 444.979 74.138C444.979 65.5541 446.627 58.2042 449.911 52.0774C453.302 45.9507 458.073 41.196 464.234 37.8348C470.396 34.4736 477.638 32.7824 485.96 32.7824C492.635 32.7824 498.85 33.7503 504.605 35.6969C510.456 37.537 515.548 39.9835 519.859 43.0468V23.5923C515.955 21.2415 511.077 19.3588 505.226 17.9229C499.374 16.3912 492.795 15.6254 485.5 15.6254C476.258 15.6254 467.882 17.0507 460.394 19.912C452.895 22.6669 446.477 26.6556 441.139 31.857C435.897 37.069 431.843 43.2915 428.966 50.5457C426.195 57.8 424.804 65.8626 424.804 74.7549C424.804 85.6788 427.115 95.1774 431.736 103.251C436.464 111.218 442.883 117.398 450.991 121.791C459.11 126.183 468.299 128.375 478.568 128.375C486.163 128.375 492.945 127.205 498.904 124.854C504.969 122.407 510.103 118.876 514.307 114.281C518.522 109.686 521.699 104.219 523.86 97.8898C526.117 91.4546 527.251 84.3067 527.251 76.4462V67.7134H474.557V84.2535Z" fill="black"/>
<path d="M392.499 99.2088L341.196 17.157H318.71V126.843H336.575V44.185L388.038 126.843H410.374V17.157H392.499V99.2088Z" fill="black"/>
</svg>
