<svg width="120" height="120" viewBox="0 0 120 120" fill="none" xmlns="http://www.w3.org/2000/svg">
<rect width="120" height="120" rx="18" fill="#B6A4FF"/>
<rect x="35.0684" y="34.6211" width="4.15514" height="4.15514" fill="#201B10"/>
<rect x="39.2227" y="34.6211" width="4.15514" height="4.15514" fill="#201B10"/>
<rect x="43.3799" y="34.6211" width="4.15514" height="4.15514" fill="#201B10"/>
<rect x="47.5322" y="34.6211" width="4.15514" height="4.15514" fill="#201B10"/>
<rect x="51.6885" y="34.6211" width="4.15514" height="4.15514" fill="#201B10"/>
<rect x="55.8457" y="34.6211" width="4.15514" height="4.15514" fill="#201B10"/>
<rect x="39.2266" y="47.0859" width="4.15514" height="4.15514" fill="#201B10"/>
<rect x="43.3809" y="47.0859" width="4.15514" height="4.15514" fill="#201B10"/>
<rect x="47.5381" y="47.0859" width="4.15514" height="4.15514" fill="#201B10"/>
<rect x="51.6904" y="47.0859" width="4.15514" height="4.15514" fill="#201B10"/>
<rect x="39.2266" y="84.4844" width="4.15514" height="4.15514" fill="#201B10"/>
<rect x="43.3809" y="84.4844" width="4.15514" height="4.15514" fill="#201B10"/>
<rect x="47.5381" y="84.4844" width="4.15514" height="4.15514" fill="#201B10"/>
<rect x="51.6904" y="84.4844" width="4.15514" height="4.15514" fill="#201B10"/>
<rect x="26.7598" y="76.1719" width="4.15514" height="4.15514" transform="rotate(-90 26.7598 76.1719)" fill="#201B10"/>
<rect x="26.7598" y="72.0156" width="4.15514" height="4.15514" transform="rotate(-90 26.7598 72.0156)" fill="#201B10"/>
<rect x="26.7598" y="67.8633" width="4.15514" height="4.15514" transform="rotate(-90 26.7598 67.8633)" fill="#201B10"/>
<rect x="26.7598" y="63.707" width="4.15514" height="4.15514" transform="rotate(-90 26.7598 63.707)" fill="#201B10"/>
<rect width="4.15514" height="4.15514" transform="matrix(4.37114e-08 -1 -1 -4.37114e-08 68.3113 76.1719)" fill="#201B10"/>
<rect width="4.15514" height="4.15514" transform="matrix(4.37114e-08 -1 -1 -4.37114e-08 68.3113 72.0156)" fill="#201B10"/>
<rect width="4.15514" height="4.15514" transform="matrix(4.37114e-08 -1 -1 -4.37114e-08 68.3113 67.8633)" fill="#201B10"/>
<rect width="4.15514" height="4.15514" transform="matrix(4.37114e-08 -1 -1 -4.37114e-08 68.3113 63.707)" fill="#201B10"/>
<rect x="76.6201" y="80.3281" width="4.15514" height="4.15514" transform="rotate(-90 76.6201 80.3281)" fill="#201B10"/>
<rect x="76.6201" y="76.1719" width="4.15514" height="4.15514" transform="rotate(-90 76.6201 76.1719)" fill="#201B10"/>
<rect x="76.6201" y="72.0195" width="4.15514" height="4.15514" transform="rotate(-90 76.6201 72.0195)" fill="#201B10"/>
<rect x="76.6201" y="67.8633" width="4.15514" height="4.15514" transform="rotate(-90 76.6201 67.8633)" fill="#201B10"/>
<rect x="76.6201" y="63.707" width="4.15514" height="4.15514" transform="rotate(-90 76.6201 63.707)" fill="#201B10"/>
<rect x="76.6201" y="59.5508" width="4.15514" height="4.15514" transform="rotate(-90 76.6201 59.5508)" fill="#201B10"/>
<rect width="4.15514" height="4.15514" transform="matrix(4.37114e-08 -1 -1 -4.37114e-08 18.45 80.3281)" fill="#201B10"/>
<rect width="4.15514" height="4.15514" transform="matrix(4.37114e-08 -1 -1 -4.37114e-08 18.45 76.1719)" fill="#201B10"/>
<rect width="4.15514" height="4.15514" transform="matrix(4.37114e-08 -1 -1 -4.37114e-08 18.45 72.0195)" fill="#201B10"/>
<rect width="4.15514" height="4.15514" transform="matrix(4.37114e-08 -1 -1 -4.37114e-08 18.45 67.8633)" fill="#201B10"/>
<rect width="4.15514" height="4.15514" transform="matrix(4.37114e-08 -1 -1 -4.37114e-08 18.45 63.707)" fill="#201B10"/>
<rect width="4.15514" height="4.15514" transform="matrix(4.37114e-08 -1 -1 -4.37114e-08 18.45 59.5508)" fill="#201B10"/>
<rect x="60.001" y="38.7773" width="4.15514" height="4.15514" fill="#201B10"/>
<rect x="64.1575" y="38.7773" width="4.15514" height="4.15514" fill="#201B10"/>
<rect x="72.4658" y="55.3984" width="4.15514" height="4.15514" transform="rotate(-90 72.4658 55.3984)" fill="#201B10"/>
<rect x="72.4658" y="51.2422" width="4.15514" height="4.15514" transform="rotate(-90 72.4658 51.2422)" fill="#201B10"/>
<rect x="68.3125" y="42.9297" width="4.15514" height="4.15514" fill="#201B10"/>
<rect x="76.6208" y="80.3281" width="4.15514" height="4.15514" transform="rotate(90 76.6208 80.3281)" fill="#201B10"/>
<rect x="76.6208" y="84.4844" width="4.15514" height="4.15514" transform="rotate(90 76.6208 84.4844)" fill="#201B10"/>
<rect x="60.001" y="92.793" width="4.15514" height="4.15514" fill="#201B10"/>
<rect x="64.1575" y="92.793" width="4.15514" height="4.15514" fill="#201B10"/>
<rect x="72.4658" y="88.6367" width="4.15514" height="4.15514" transform="rotate(90 72.4658 88.6367)" fill="#201B10"/>
<rect x="60.0012" y="101.102" width="4.15514" height="4.15514" transform="rotate(180 60.0012 101.102)" fill="#201B10"/>
<rect x="55.8469" y="101.102" width="4.15514" height="4.15514" transform="rotate(180 55.8469 101.102)" fill="#201B10"/>
<rect x="51.6897" y="101.102" width="4.15514" height="4.15514" transform="rotate(180 51.6897 101.102)" fill="#201B10"/>
<rect x="47.5374" y="101.102" width="4.15514" height="4.15514" transform="rotate(180 47.5374 101.102)" fill="#201B10"/>
<rect x="43.3811" y="101.102" width="4.15514" height="4.15514" transform="rotate(180 43.3811 101.102)" fill="#201B10"/>
<rect x="39.2239" y="101.102" width="4.15514" height="4.15514" transform="rotate(180 39.2239 101.102)" fill="#201B10"/>
<rect width="4.15514" height="4.15514" transform="matrix(-1 0 0 1 35.0693 38.7773)" fill="#201B10"/>
<rect width="4.15514" height="4.15514" transform="matrix(-1 0 0 1 30.915 38.7773)" fill="#201B10"/>
<rect width="4.15514" height="4.15514" transform="matrix(4.37114e-08 -1 -1 -4.37114e-08 22.6042 55.3984)" fill="#201B10"/>
<rect width="4.15514" height="4.15514" transform="matrix(-1 0 0 1 39.2275 51.2422)" fill="#201B10"/>
<rect width="4.15514" height="4.15514" transform="matrix(-1 0 0 1 35.0703 51.2422)" fill="#201B10"/>
<rect width="4.15514" height="4.15514" transform="matrix(4.37114e-08 -1 -1 -4.37114e-08 35.0703 59.5508)" fill="#201B10"/>
<rect width="4.15514" height="4.15514" transform="matrix(4.37114e-08 1 1 -4.37114e-08 30.916 76.1719)" fill="#201B10"/>
<rect width="4.15514" height="4.15514" transform="matrix(4.37114e-08 1 1 -4.37114e-08 30.916 80.3242)" fill="#201B10"/>
<rect width="4.15514" height="4.15514" transform="matrix(-1 0 0 1 39.2275 80.3242)" fill="#201B10"/>
<rect width="4.15514" height="4.15514" transform="matrix(4.37114e-08 -1 -1 -4.37114e-08 22.6042 51.2422)" fill="#201B10"/>
<rect x="55.845" y="51.2422" width="4.15514" height="4.15514" fill="#201B10"/>
<rect x="60.0022" y="51.2422" width="4.15514" height="4.15514" fill="#201B10"/>
<rect x="60.0022" y="59.5508" width="4.15514" height="4.15514" transform="rotate(-90 60.0022 59.5508)" fill="#201B10"/>
<rect x="64.1589" y="76.1719" width="4.15514" height="4.15514" transform="rotate(90 64.1589 76.1719)" fill="#201B10"/>
<rect x="64.1589" y="80.3242" width="4.15514" height="4.15514" transform="rotate(90 64.1589 80.3242)" fill="#201B10"/>
<rect x="55.8474" y="80.3242" width="4.15514" height="4.15514" fill="#201B10"/>
<rect width="4.15514" height="4.15514" transform="matrix(-1 0 0 1 26.7578 42.9297)" fill="#201B10"/>
<rect width="4.15514" height="4.15514" transform="matrix(4.37114e-08 1 1 -4.37114e-08 18.4504 80.3281)" fill="#201B10"/>
<rect width="4.15514" height="4.15514" transform="matrix(4.37114e-08 1 1 -4.37114e-08 18.4504 84.4844)" fill="#201B10"/>
<rect width="4.15514" height="4.15514" transform="matrix(-1 0 0 1 35.0693 92.793)" fill="#201B10"/>
<rect width="4.15514" height="4.15514" transform="matrix(-1 0 0 1 30.915 92.793)" fill="#201B10"/>
<rect width="4.15514" height="4.15514" transform="matrix(4.37114e-08 1 1 -4.37114e-08 22.6042 88.6367)" fill="#201B10"/>
<rect x="60.001" y="18" width="4.15514" height="4.15514" fill="#201B10"/>
<rect x="64.1553" y="18" width="4.15514" height="4.15514" fill="#201B10"/>
<rect x="68.3105" y="18" width="4.15514" height="4.15514" fill="#201B10"/>
<rect x="72.4648" y="18" width="4.15514" height="4.15514" fill="#201B10"/>
<rect x="76.6221" y="18" width="4.15514" height="4.15514" fill="#201B10"/>
<rect x="80.7764" y="18" width="4.15514" height="4.15514" fill="#201B10"/>
<rect x="64.1562" y="30.4648" width="4.15514" height="4.15514" fill="#201B10"/>
<rect x="68.3105" y="30.4648" width="4.15514" height="4.15514" fill="#201B10"/>
<rect x="72.4678" y="30.4648" width="4.15514" height="4.15514" fill="#201B10"/>
<rect x="76.6201" y="30.4648" width="4.15514" height="4.15514" fill="#201B10"/>
<rect width="4.15514" height="4.15514" transform="matrix(4.37114e-08 -1 -1 -4.37114e-08 93.2422 59.5508)" fill="#201B10"/>
<rect width="4.15514" height="4.15514" transform="matrix(4.37114e-08 -1 -1 -4.37114e-08 93.2422 55.3945)" fill="#201B10"/>
<rect width="4.15514" height="4.15514" transform="matrix(4.37114e-08 -1 -1 -4.37114e-08 93.2422 51.2422)" fill="#201B10"/>
<rect width="4.15514" height="4.15514" transform="matrix(4.37114e-08 -1 -1 -4.37114e-08 93.2422 47.0859)" fill="#201B10"/>
<rect x="101.551" y="63.707" width="4.15514" height="4.15514" transform="rotate(-90 101.551 63.707)" fill="#201B10"/>
<rect x="101.551" y="59.5508" width="4.15514" height="4.15514" transform="rotate(-90 101.551 59.5508)" fill="#201B10"/>
<rect x="101.551" y="55.3984" width="4.15514" height="4.15514" transform="rotate(-90 101.551 55.3984)" fill="#201B10"/>
<rect x="101.551" y="51.2422" width="4.15514" height="4.15514" transform="rotate(-90 101.551 51.2422)" fill="#201B10"/>
<rect x="101.551" y="47.0859" width="4.15514" height="4.15514" transform="rotate(-90 101.551 47.0859)" fill="#201B10"/>
<rect x="101.551" y="42.9297" width="4.15514" height="4.15514" transform="rotate(-90 101.551 42.9297)" fill="#201B10"/>
<rect x="84.9316" y="22.1562" width="4.15514" height="4.15514" fill="#201B10"/>
<rect x="89.0859" y="22.1562" width="4.15514" height="4.15514" fill="#201B10"/>
<rect x="97.3955" y="38.7773" width="4.15514" height="4.15514" transform="rotate(-90 97.3955 38.7773)" fill="#201B10"/>
<rect x="97.3955" y="34.6211" width="4.15514" height="4.15514" transform="rotate(-90 97.3955 34.6211)" fill="#201B10"/>
<rect x="93.2432" y="26.3086" width="4.15514" height="4.15514" fill="#201B10"/>
<rect x="101.55" y="63.707" width="4.15514" height="4.15514" transform="rotate(90 101.55 63.707)" fill="#201B10"/>
<rect x="101.55" y="67.8633" width="4.15514" height="4.15514" transform="rotate(90 101.55 67.8633)" fill="#201B10"/>
<rect x="84.9316" y="76.1719" width="4.15514" height="4.15514" fill="#201B10"/>
<rect x="76.6201" y="80.3281" width="4.15514" height="4.15514" fill="#201B10"/>
<rect x="89.0859" y="76.1719" width="4.15514" height="4.15514" fill="#201B10"/>
<rect x="80.7773" y="80.3281" width="4.15514" height="4.15514" fill="#201B10"/>
<rect x="97.3955" y="72.0156" width="4.15514" height="4.15514" transform="rotate(90 97.3955 72.0156)" fill="#201B10"/>
<rect width="4.15514" height="4.15514" transform="matrix(-1 0 0 1 60 22.1562)" fill="#201B10"/>
<rect width="4.15514" height="4.15514" transform="matrix(-1 0 0 1 55.8447 22.1562)" fill="#201B10"/>
<rect width="4.15514" height="4.15514" transform="matrix(4.37114e-08 -1 -1 -4.37114e-08 47.5342 38.7773)" fill="#201B10"/>
<rect width="4.15514" height="4.15514" transform="matrix(-1 0 0 1 64.1592 34.6211)" fill="#201B10"/>
<rect width="4.15514" height="4.15514" transform="matrix(-1 0 0 1 60.002 34.6211)" fill="#201B10"/>
<rect width="4.15514" height="4.15514" transform="matrix(4.37114e-08 -1 -1 -4.37114e-08 47.5342 34.6211)" fill="#201B10"/>
<rect x="80.7766" y="34.6211" width="4.15514" height="4.15514" fill="#201B10"/>
<rect x="84.9338" y="34.6211" width="4.15514" height="4.15514" fill="#201B10"/>
<rect x="84.9338" y="42.9297" width="4.15514" height="4.15514" transform="rotate(-90 84.9338 42.9297)" fill="#201B10"/>
<rect x="89.084" y="59.5547" width="4.15514" height="4.15514" transform="rotate(90 89.084 59.5547)" fill="#201B10"/>
<rect x="89.084" y="63.707" width="4.15514" height="4.15514" transform="rotate(90 89.084 63.707)" fill="#201B10"/>
<rect x="80.7725" y="63.707" width="4.15514" height="4.15514" fill="#201B10"/>
<rect width="4.15514" height="4.15514" transform="matrix(-1 0 0 1 51.6912 26.3086)" fill="#201B10"/>
</svg>
