<svg width="120" height="120" viewBox="0 0 120 120" fill="none" xmlns="http://www.w3.org/2000/svg">
<rect width="120" height="120" rx="18" fill="#FF87FF"/>
<path d="M43.6803 19.4219H38.2571V24.845H43.6803V19.4219Z" fill="black"/>
<path d="M38.2574 24.8477H32.8342V30.2708H38.2574V24.8477Z" fill="black"/>
<path d="M38.2574 30.2695H32.8342V35.6927H38.2574V30.2695Z" fill="black"/>
<path d="M87.2965 30.2695H81.8733V35.6927H87.2965V30.2695Z" fill="black"/>
<path d="M38.2574 35.6914H32.8342V41.1146H38.2574V35.6914Z" fill="black"/>
<path d="M87.2965 35.6914H81.8733V41.1146H87.2965V35.6914Z" fill="black"/>
<path d="M38.2574 41.1172H32.8342V46.5404H38.2574V41.1172Z" fill="black"/>
<path d="M38.2574 46.5391H32.8342V51.9622H38.2574V46.5391Z" fill="black"/>
<path d="M49.1998 14H43.7766V19.4232H49.1998V14Z" fill="black"/>
<path d="M32.983 51.9609H27.5598V57.3841H32.983V51.9609Z" fill="black"/>
<path d="M54.6217 14H49.1985V19.4232H54.6217V14Z" fill="black"/>
<path d="M38.4058 51.9609H32.9827V57.3841H38.4058V51.9609Z" fill="black"/>
<path d="M60.0445 14H54.6213V19.4232H60.0445V14Z" fill="black"/>
<path d="M43.8287 51.9609H38.4055V57.3841H43.8287V51.9609Z" fill="black"/>
<path d="M65.4664 14H60.0432V19.4232H65.4664V14Z" fill="black"/>
<path d="M49.2506 51.9609H43.8274V57.3841H49.2506V51.9609Z" fill="black"/>
<path d="M81.871 51.9609H74.6428V57.3841H81.871V51.9609Z" fill="black"/>
<path d="M76.314 51.9609H70.8909V57.3841H76.314V51.9609Z" fill="black"/>
<path d="M70.9449 51.9609H65.5217V57.3841H70.9449V51.9609Z" fill="black"/>
<path d="M70.8931 14H65.47V19.4232H70.8931V14Z" fill="black"/>
<path d="M54.6763 51.9609H49.2532V57.3841H54.6763V51.9609Z" fill="black"/>
<path d="M87.2965 51.9609H81.8733V57.3841H87.2965V51.9609Z" fill="black"/>
<path d="M76.315 14H70.8918V19.4232H76.315V14Z" fill="black"/>
<path d="M60.0992 51.9609H54.676V57.3841H60.0992V51.9609Z" fill="black"/>
<path d="M63.8521 69.7383H58.429V75.1615H63.8521V69.7383Z" fill="black"/>
<path d="M58.484 75.1602H53.0608V80.5833H58.484V75.1602Z" fill="black"/>
<path d="M63.8521 80.582H58.429V86.0052H63.8521V80.582Z" fill="black"/>
<path d="M69.274 75.1602H63.8508V80.5833H69.274V75.1602Z" fill="black"/>
<path d="M92.7193 51.9609H87.2961V57.3841H92.7193V51.9609Z" fill="black"/>
<path d="M81.7379 19.4219H76.3147V24.845H81.7379V19.4219Z" fill="black"/>
<path d="M65.5221 51.9609H60.0989V57.3841H65.5221V51.9609Z" fill="black"/>
<path d="M87.2564 24.8477H81.8333V30.2708H87.2564V24.8477Z" fill="black"/>
<path d="M47.3585 100.852H38.2571V106.275H47.3585V100.852Z" fill="black"/>
<path d="M38.3541 100.852H32.9309V106.275H38.3541V100.852Z" fill="black"/>
<path d="M32.983 95.4297H27.5598V100.853H32.983V95.4297Z" fill="black"/>
<path d="M49.1998 100.852H43.7766V106.275H49.1998V100.852Z" fill="black"/>
<path d="M54.6217 100.852H49.1985V106.275H54.6217V100.852Z" fill="black"/>
<path d="M60.0445 100.852H54.6213V106.275H60.0445V100.852Z" fill="black"/>
<path d="M65.4664 100.852H60.0432V106.275H65.4664V100.852Z" fill="black"/>
<path d="M70.8931 100.852H65.47V106.275H70.8931V100.852Z" fill="black"/>
<path d="M76.315 100.852H70.8918V106.275H76.315V100.852Z" fill="black"/>
<path d="M81.7379 100.852H76.3147V106.275H81.7379V100.852Z" fill="black"/>
<path d="M87.1607 100.852H81.7375V106.275H87.1607V100.852Z" fill="black"/>
<path d="M98.1008 76.2776V68.2305H92.6777V76.2776H98.1008Z" fill="black"/>
<path d="M98.1008 68.2435V62.8203H92.6777V68.2435H98.1008Z" fill="black"/>
<path d="M98.1008 62.8216V57.3984H92.6777V62.8216H98.1008Z" fill="black"/>
<path d="M98.1155 79.0911V73.668H92.6923V79.0911H98.1155Z" fill="black"/>
<path d="M98.1301 84.5286V79.1055H92.707V84.5286H98.1301Z" fill="black"/>
<path d="M98.1418 89.9661V84.543H92.7187V89.9661H98.1418Z" fill="black"/>
<path d="M27.4231 73.6419V68.2188H21.9999V73.6419H27.4231Z" fill="black"/>
<path d="M27.4231 68.2435V62.8203H21.9999V68.2435H27.4231Z" fill="black"/>
<path d="M27.4231 62.8099V57.3867H21.9999V62.8099H27.4231Z" fill="black"/>
<path d="M27.4387 79.0755V73.6523H22.0155V79.0755H27.4387Z" fill="black"/>
<path d="M27.4534 84.513V79.0898H22.0302V84.513H27.4534Z" fill="black"/>
<path d="M27.4641 89.9505V84.5273H22.0409V89.9505H27.4641Z" fill="black"/>
<path d="M27.4641 95.349V89.9258H22.0409V95.349H27.4641Z" fill="black"/>
<path d="M98.1428 95.349V89.9258H92.7196V95.349H98.1428Z" fill="black"/>
<path d="M92.72 100.865V95.4414H87.2968V100.865H92.72Z" fill="black"/>
</svg>
