<svg width="120" height="120" viewBox="0 0 120 120" fill="none" xmlns="http://www.w3.org/2000/svg">
<rect width="120" height="120" rx="18" fill="#2AE881"/>
<path d="M105.259 48.8359H100.878V61.8728H105.259V48.8359Z" fill="black"/>
<path d="M100.876 61.8711H96.4949V70.5267H100.876V61.8711Z" fill="black"/>
<path d="M100.876 44.4531H92.2205V48.8344H100.876V44.4531Z" fill="black"/>
<path d="M96.6017 70.5273H92.2205V74.9086H96.6017V70.5273Z" fill="black"/>
<path d="M92.223 96.6016H87.8418V100.983H92.223V96.6016Z" fill="black"/>
<path d="M87.8418 53.1102H92.223V48.7289H87.8418V44.3477H83.5674V79.184H92.223V74.8027H87.8418V53.1102Z" fill="black"/>
<path d="M87.8401 100.984H18.2744V105.366H87.8401V100.984Z" fill="black"/>
<path d="M83.5658 79.293H79.1846V87.9486H83.5658V79.293Z" fill="black"/>
<path d="M74.8033 92.3266H31.3113V87.9453H26.9301V92.3266H18.2744V96.7078H87.8401V92.3266H79.1845V87.9453H74.8033V92.3266Z" fill="black"/>
<path d="M70.5297 27.0352H66.1484V31.4164H70.5297V27.0352Z" fill="black"/>
<path d="M66.1466 31.418H61.7654V35.7992H66.1466V31.418Z" fill="black"/>
<path d="M66.1466 22.7617H61.7654V27.143H66.1466V22.7617Z" fill="black"/>
<path d="M66.1466 14H61.7654V18.3813H66.1466V14Z" fill="black"/>
<path d="M61.768 18.3828H57.3867V22.7641H61.768V18.3828Z" fill="black"/>
<path d="M53.1107 27.0352H48.7295V31.4164H53.1107V27.0352Z" fill="black"/>
<path d="M48.7277 31.418H44.3464V35.7992H48.7277V31.418Z" fill="black"/>
<path d="M48.7277 22.7617H44.3464V27.143H48.7277V22.7617Z" fill="black"/>
<path d="M48.7277 14H44.3464V18.3813H48.7277V14Z" fill="black"/>
<path d="M44.349 18.3828H39.9678V22.7641H44.349V18.3828Z" fill="black"/>
<path d="M35.6941 44.4555V57.4924H31.3129V70.5293H35.6941V74.9105H44.3498V70.5293H48.731V57.4924H44.3498V66.148H39.9685V57.4924H44.3498V53.1111H39.9685V44.4555H83.5673V40.0742H22.6572V44.4555H35.6941Z" fill="black"/>
<path d="M27.0385 79.293H22.6572V87.9486H27.0385V79.293Z" fill="black"/>
<path d="M22.6557 44.4531H18.2744V79.2894H22.6557V44.4531Z" fill="black"/>
<path d="M18.2744 96.6016H14V100.983H18.3813V96.6016H18.2744Z" fill="black"/>
</svg>
