<svg width="120" height="120" viewBox="0 0 120 120" fill="none" xmlns="http://www.w3.org/2000/svg">
<rect width="120" height="120" rx="18" fill="#73CCFE"/>
<path d="M92.7796 36.1367H88.4336V58.0514H92.7796V36.1367Z" fill="black"/>
<path d="M88.4338 58.0547H84.0879V71.185H88.4338V58.0547Z" fill="black"/>
<path d="M88.4338 27.4453H84.0879V36.1372H88.4338V27.4453Z" fill="black"/>
<path d="M84.0891 71.0898H79.7432V79.8742H84.0891V71.0898Z" fill="black"/>
<path d="M84.0891 23.0078H79.7432V27.3538H84.0891V23.0078Z" fill="black"/>
<path d="M79.6494 79.875H75.3035V88.6594H79.6494V79.875Z" fill="black"/>
<path d="M75.3032 49.2675H70.9572V40.4832H66.6112V36.1372H62.2653V31.7913H66.6112V27.4453H53.4809V31.7913H49.0425V36.1372H44.6965V40.4832H40.3506V53.6135H44.6965V58.0519H49.0425V62.3979H53.3884V66.7438H66.5188V62.3979H70.8647V58.0519H75.2107V53.706H79.5566V40.5756H75.2107V49.2675H75.3032Z" fill="black"/>
<path d="M75.304 88.6602H70.958V93.0061H75.304V88.6602Z" fill="black"/>
<path d="M75.304 36.1367H70.958V40.4827H75.304V36.1367Z" fill="black"/>
<path d="M79.6499 18.6641H70.958V23.01H79.6499V18.6641Z" fill="black"/>
<path d="M70.959 93.0078H66.613V97.3538H70.959V93.0078Z" fill="black"/>
<path d="M70.959 31.793H66.613V36.1389H70.959V31.793Z" fill="black"/>
<path d="M66.52 97.3516H62.1741V101.698H66.52V97.3516Z" fill="black"/>
<path d="M62.1751 101.789H57.8291V106.135H62.1751V101.789Z" fill="black"/>
<path d="M57.8254 97.3516H53.4795V101.698H57.8254V97.3516Z" fill="black"/>
<path d="M70.9587 14.3164H49.0439V18.6624H70.8662V14.3164H70.9587Z" fill="black"/>
<path d="M53.4824 93.0078H49.0439V97.3538H53.3899V93.0078H53.4824Z" fill="black"/>
<path d="M49.0415 88.6602H44.6956V93.0061H49.0415V88.6602Z" fill="black"/>
<path d="M49.0444 18.6641H40.26V23.01H49.0444V18.6641Z" fill="black"/>
<path d="M44.6965 79.875H40.3506V88.6594H44.6965V79.875Z" fill="black"/>
<path d="M40.3511 71.0898H36.0051V79.8742H40.3511V71.0898Z" fill="black"/>
<path d="M40.3511 23.0078H36.0051V27.3538H40.3511V23.0078Z" fill="black"/>
<path d="M35.9124 58.0547H31.5664V71.185H35.9124V58.0547Z" fill="black"/>
<path d="M35.9124 27.4453H31.5664V36.1372H35.9124V27.4453Z" fill="black"/>
<path d="M31.5667 36.1367H27.2207V58.0514H31.5667V36.1367Z" fill="black"/>
</svg>
