<svg width="120" height="120" viewBox="0 0 120 120" fill="none" xmlns="http://www.w3.org/2000/svg">
<rect width="120" height="120" rx="18" fill="#FF5F00"/>
<path d="M36.5138 40.0273H29.1064V45.2264H36.5138V40.0273Z" fill="black"/>
<path d="M39.5965 53.0391H34.3975V58.2381H39.5965V53.0391Z" fill="black"/>
<path d="M41.8361 63.4492H34.3975V68.6483H41.8361V63.4492Z" fill="black"/>
<path d="M39.5965 40.0273H34.3975V45.2264H39.5965V40.0273Z" fill="black"/>
<path d="M44.8872 53.0391H37.7908V58.2381H44.8872V53.0391Z" fill="black"/>
<path d="M44.8876 63.4492H39.6885V68.6483H44.8876V63.4492Z" fill="black"/>
<path d="M44.7948 40.0273H39.5957V45.2264H44.7948V40.0273Z" fill="black"/>
<path d="M50.0858 53.0391H44.8867V58.2381H50.0858V53.0391Z" fill="black"/>
<path d="M50.0858 63.4492H44.8867V68.6483H50.0858V63.4492Z" fill="black"/>
<path d="M49.9928 40.0273H44.7937V45.2264H49.9928V40.0273Z" fill="black"/>
<path d="M55.284 53.0391H50.085V58.2381H55.284V53.0391Z" fill="black"/>
<path d="M63.6261 63.4492H50.085V68.6483H63.6261V63.4492Z" fill="black"/>
<path d="M55.1913 40.0273H49.9922V45.2264H55.1913V40.0273Z" fill="black"/>
<path d="M60.3932 40.0273H55.1941V45.2264H60.3932V40.0273Z" fill="black"/>
<path d="M65.5917 40.0273H60.3926V45.2264H65.5917V40.0273Z" fill="black"/>
<path d="M70.7899 40.0273H65.5908V45.2264H70.7899V40.0273Z" fill="black"/>
<path d="M37.1525 97.3203H29.1064V102.519H37.1525V97.3203Z" fill="black"/>
<path d="M39.5965 97.3203H34.3975V102.519H39.5965V97.3203Z" fill="black"/>
<path d="M44.7948 97.3203H39.5957V102.519H44.7948V97.3203Z" fill="black"/>
<path d="M49.9928 97.3203H44.7937V102.519H49.9928V97.3203Z" fill="black"/>
<path d="M55.1913 97.3203H49.9922V102.519H55.1913V97.3203Z" fill="black"/>
<path d="M60.3932 97.3203H55.1941V102.519H60.3932V97.3203Z" fill="black"/>
<path d="M65.5917 97.3203H60.3926V102.519H65.5917V97.3203Z" fill="black"/>
<path d="M70.7899 97.3203H65.5908V102.519H70.7899V97.3203Z" fill="black"/>
<path d="M76.0566 92.1094L76.0566 45.2266H70.8576L70.8576 92.1094H76.0566Z" fill="black"/>
<path d="M76.0674 97.3202V92.1211H70.8683V97.3202H76.0674Z" fill="black"/>
<path d="M29.199 97.3343L29.199 45.2266H23.9999L23.9999 97.3343H29.199Z" fill="black"/>
<path d="M57.4015 18H49.9941V23.1991H57.4015V18Z" fill="black"/>
<path d="M60.4842 18H55.2852V23.1991H60.4842V18Z" fill="black"/>
<path d="M65.6822 18H60.4832V23.1991H65.6822V18Z" fill="black"/>
<path d="M70.8807 18H65.6816V23.1991H70.8807V18Z" fill="black"/>
<path d="M76.079 18H70.8799V23.1991H76.079V18Z" fill="black"/>
<path d="M81.2809 18H76.0818V23.1991H81.2809V18Z" fill="black"/>
<path d="M86.4794 18H81.2803V23.1991H86.4794V18Z" fill="black"/>
<path d="M91.6776 18H86.4785V23.1991H91.6776V18Z" fill="black"/>
<path d="M76.079 75.293H70.8799V80.492H76.079V75.293Z" fill="black"/>
<path d="M81.2809 75.293H76.0818V80.492H81.2809V75.293Z" fill="black"/>
<path d="M86.4794 75.293H81.2803V80.492H86.4794V75.293Z" fill="black"/>
<path d="M91.6776 75.293H86.4785V80.492H91.6776V75.293Z" fill="black"/>
<path d="M96.9443 70.082L96.9443 23.1992H91.7453L91.7453 70.082H96.9443Z" fill="black"/>
<path d="M96.9551 75.2928V70.0938H91.756V75.2928H96.9551Z" fill="black"/>
<path d="M50.0867 42.8567L50.0867 23.1992H44.8876L44.8876 42.8567H50.0867Z" fill="black"/>
</svg>
