<svg width="120" height="120" viewBox="0 0 120 120" fill="none" xmlns="http://www.w3.org/2000/svg">
<rect width="120" height="120" rx="18" fill="#FFE601"/>
<path d="M42.6932 20H36.96V25.7332H42.6932V20Z" fill="black"/>
<path d="M36.9607 25.7344H31.2275V31.4676H36.9607V25.7344Z" fill="black"/>
<path d="M31.2283 31.4648H25.4951V37.198H31.2283V31.4648Z" fill="black"/>
<path d="M48.5281 20H42.7949V25.7332H48.5281V20Z" fill="black"/>
<path d="M54.2605 20H48.5273V25.7332H54.2605V20Z" fill="black"/>
<path d="M59.993 20H54.2598V25.7332H59.993V20Z" fill="black"/>
<path d="M65.7254 20H59.9922V25.7332H65.7254V20Z" fill="black"/>
<path d="M71.4617 20H65.7285V25.7332H71.4617V20Z" fill="black"/>
<path d="M77.1941 20H71.4609V25.7332H77.1941V20Z" fill="black"/>
<path d="M82.9266 20H77.1934V25.7332H82.9266V20Z" fill="black"/>
<path d="M88.7605 25.7344H83.0273V31.4676H88.7605V25.7344Z" fill="black"/>
<path d="M94.493 31.4648H88.7598V37.198H94.493V31.4648Z" fill="black"/>
<path d="M42.6932 94.7344H36.96V100.468H42.6932V94.7344Z" fill="black"/>
<path d="M36.9607 89H31.2275V94.7332H36.9607V89Z" fill="black"/>
<path d="M31.2283 83.2656H25.4951V88.9988H31.2283V83.2656Z" fill="black"/>
<path d="M48.5281 94.7344H42.7949V100.468H48.5281V94.7344Z" fill="black"/>
<path d="M54.2605 94.7344H48.5273V100.468H54.2605V94.7344Z" fill="black"/>
<path d="M59.993 94.7344H54.2598V100.468H59.993V94.7344Z" fill="black"/>
<path d="M65.7254 94.7344H59.9922V100.468H65.7254V94.7344Z" fill="black"/>
<path d="M71.4617 94.7344H65.7285V100.468H71.4617V94.7344Z" fill="black"/>
<path d="M77.1941 94.7344H71.4609V100.468H77.1941V94.7344Z" fill="black"/>
<path d="M82.9266 94.7344H77.1934V100.468H82.9266V94.7344Z" fill="black"/>
<path d="M100.268 42.991V37.2578H94.5344V42.991H100.268Z" fill="black"/>
<path d="M100.181 48.7371V43.0039H94.4482V48.7371H100.181Z" fill="black"/>
<path d="M100.197 54.4871V48.7539H94.4641V54.4871H100.197Z" fill="black"/>
<path d="M100.213 60.2332V54.5H94.4797V60.2332H100.213Z" fill="black"/>
<path d="M100.225 65.9793V60.2461H94.4914V65.9793H100.225Z" fill="black"/>
<path d="M100.24 71.7293V65.9961H94.5073V71.7293H100.24Z" fill="black"/>
<path d="M100.256 77.4754V71.7422H94.5227V77.4754H100.256Z" fill="black"/>
<path d="M100.268 83.2215V77.4883H94.5344V83.2215H100.268Z" fill="black"/>
<path d="M25.5498 42.9754V37.2422H19.8166V42.9754H25.5498Z" fill="black"/>
<path d="M25.4636 48.7254V42.9922H19.7304V48.7254H25.4636Z" fill="black"/>
<path d="M62.9014 94.7176L62.9014 88.9844L57.1682 88.9844L57.1682 94.7176L62.9014 94.7176Z" fill="black"/>
<path d="M62.9014 31.4676L62.9014 25.7344L57.1682 25.7344L57.1682 31.4676L62.9014 31.4676Z" fill="black"/>
<path d="M31.1973 63.0848L31.1973 57.3516L25.4641 57.3516L25.4641 63.0848L31.1973 63.0848Z" fill="black"/>
<path d="M94.5342 63.0848L94.5342 57.3516L88.801 57.3516L88.801 63.0848L94.5342 63.0848Z" fill="black"/>
<path d="M62.9012 51.5742L57.168 51.5742L57.168 57.3074L62.9012 57.3074L62.9012 51.5742Z" fill="black"/>
<path d="M62.9012 57.3086L57.168 57.3086L57.168 63.0418L62.9012 63.0418L62.9012 57.3086Z" fill="black"/>
<path d="M68.6189 57.3086L62.8857 57.3086L62.8857 63.0418L68.6189 63.0418L68.6189 57.3086Z" fill="black"/>
<path d="M74.3521 57.3086L68.6189 57.3086L68.6189 63.0418L74.3521 63.0418L74.3521 57.3086Z" fill="black"/>
<path d="M68.6189 45.8437L62.8857 45.8438L62.8857 51.5769L68.6189 51.5769L68.6189 45.8437Z" fill="black"/>
<path d="M74.3787 40.1094L68.6455 40.1094L68.6455 45.8426L74.3787 45.8426L74.3787 40.1094Z" fill="black"/>
<path d="M80.0594 34.3906L74.3262 34.3906L74.3262 40.1238L80.0594 40.1238L80.0594 34.3906Z" fill="black"/>
<path d="M25.4795 54.4715V48.7383H19.7463V54.4715H25.4795Z" fill="black"/>
<path d="M25.4951 60.2176V54.4844H19.7619V60.2176H25.4951Z" fill="black"/>
<path d="M25.5068 65.9676V60.2344H19.7736V65.9676H25.5068Z" fill="black"/>
<path d="M25.5227 71.7137V65.9805H19.7895V71.7137H25.5227Z" fill="black"/>
<path d="M25.5383 77.4598V71.7266H19.8051V77.4598H25.5383Z" fill="black"/>
<path d="M25.5498 83.2098V77.4766H19.8166V83.2098H25.5498Z" fill="black"/>
<path d="M94.4375 88.9871V83.2539H88.7043V88.9871H94.4375Z" fill="black"/>
<path d="M88.7009 94.7488V89.0156H82.9677V94.7488H88.7009Z" fill="black"/>
</svg>
