<svg width="151" height="150" viewBox="0 0 151 150" fill="none" xmlns="http://www.w3.org/2000/svg"><path d="M75.126 150c41.421 0 74.999-33.579 74.999-75s-33.578-75-75-75c-41.42 0-75 33.579-75 75s33.58 75 75 75z" fill="url(#a)"/><path d="M126.495 57.897c.102.305.203.61.203.915l.102 31.51c-.407 13.418-2.036 16.061-14.765 23.277l-21.078 12.096c-1.425.814-2.444 1.119-3.971 1.119-2.546 0-4.786-1.322-5.906-3.355-.611-1.016-1.018-2.134-1.018-3.354V95.71c0-7.42 4.684-15.146 11.71-19.822l32.279-18.601c.814-.508 1.935-.203 2.444.61zM34.24 58.1l20.772 11.994c6.212 3.66 10.59 11.283 10.998 19.517v36.491c0 .915-.713 1.728-1.732 1.728-.305 0-.509-.102-.814-.203l-26.679-15.451c-10.793-6.607-12.524-9.351-12.626-22.159V64.504c0-1.728.305-2.643 1.018-3.964 1.324-2.135 3.462-3.355 5.804-3.355 1.12 0 2.24.305 3.259.915zM114.174 46.512c-.509.915-1.426 1.83-2.444 2.44l-21.078 12.3c-6.415 3.76-15.376 3.76-23.013 0L35.156 42.65c-.916-.508-1.222-1.627-.713-2.44.102-.203.306-.406.611-.61l27.29-15.755c11.913-6.404 15.172-6.404 27.9.915l20.977 12.096c1.425.813 2.138 1.525 2.953 2.846a7.038 7.038 0 0 1 0 6.81z" fill="#fff"/><defs><linearGradient id="a" x1="-.922" y1="78.613" x2="151.495" y2="71.411" gradientUnits="userSpaceOnUse"><stop stop-color="#8200FF"/><stop offset="1" stop-color="#00BCC3"/></linearGradient></defs></svg>