<svg width="151" height="151" viewBox="0 0 151 151" fill="none" xmlns="http://www.w3.org/2000/svg"><mask id="a" style="mask-type:luminance" maskUnits="userSpaceOnUse" x="0" y="0" width="151" height="151"><path d="M75.857 150.457c41.421 0 75-33.578 75-75 0-41.421-33.579-75-75-75-41.422 0-75 33.579-75 75 0 41.422 33.578 75 75 75z" fill="#fff"/></mask><g mask="url(#a)"><path d="M150.856 150.457h-42.485l-65.03-150h107.515v150z" fill="#FC3F1D"/><path d="M150.856 150.457h-42.485l-65.03-150h107.515v150z" fill="#2B2B2B"/><path fillRule="evenodd" clip-rule="evenodd" d="M127.519 63.678a18.089 18.089 0 0 0-9.706-9.573 48.298 48.298 0 0 0 1.147-8.383h-7.941a43.197 43.197 0 0 1-.883 6.221c-6.176-.882-13.147 0-19.852 2.382a125.401 125.401 0 0 1-1.5-11.911c23.867-1.324 37.941-6.971 38.602-7.28l-3-7.147c-.132 0-13.5 5.294-35.867 6.618 0-5.338-.177-5.294.088-7.103l-7.941-.088c-.177 1.5-.132 3.088-.088 7.5h-.75c-7.147 0-13.765-.53-15.353-.662l-1.456 7.897c2.338.176 9.485.573 15.882.573h.97l1.015-.044c.31 4.412.883 9.53 1.942 15.089C72.284 63.943 63.857 75.855 68.18 85.56c1.764 4.058 5.25 6.705 9.705 7.367.795.088 1.589.177 2.383.177 4.544 0 9.75-1.81 14.735-4.897a47.673 47.673 0 0 0 6.132 7.5l5.471-5.692c-.088-.044-2.382-2.205-5.294-6.573a56.733 56.733 0 0 0 14.382-21.662c1.765 1.015 3.53 2.515 4.5 4.809 3.177 7.72-1.411 16.676-5.735 20.559l5.426 5.735c7.148-6.485 12.045-18.573 7.677-29.206h-.044zM79.078 85.164a4.323 4.323 0 0 1-3.662-2.736c-1.941-4.456 2.294-11.78 9.265-16.632 1.764 6.176 3.97 11.47 6.22 15.706-4.235 2.647-8.603 4.147-11.823 3.662zm19.897-10.589l-1.765 1.853c-1.941-3.97-3.882-8.735-5.294-14.382a36.663 36.663 0 0 1 16.103-2.559 49.064 49.064 0 0 1-9.044 15.133v-.045z" fill="#fff"/><path d="M.857.457h42.485l65.029 150H.857v-150z" fill="#FC3F1D"/><path d="M.857.457h42.485l65.029 150H.857v-150z" fill="url(#b)" fill-opacity=".4"/><path fillRule="evenodd" clip-rule="evenodd" d="M46.651 55.252l-25.853 59.735h10.588L37.74 99.06h26.162l6.353 15.927h10.588L54.99 55.252h-8.382.044zm4.147 12.308l9.662 23.427H41.18l9.618-23.427z" fill="#fff"/></g><defs><linearGradient id="b" x1="196.563" y1="-16.704" x2="36.769" y2="120.943" gradientUnits="userSpaceOnUse"><stop stop-color="#fff"/><stop offset="1" stop-color="#fff" stop-opacity="0"/></linearGradient></defs></svg>