<svg width="151" height="151" viewBox="0 0 151 151" fill="none" xmlns="http://www.w3.org/2000/svg"><path fillRule="evenodd" clipRule="evenodd" d="M75.106.457c41.423 0 75 33.578 75 74.998s-33.577 75-75 75c-41.42 0-74.997-33.58-74.997-75S33.686.457 75.106.457z" fill="#E4DFDD"/><path fillRule="evenodd" clipRule="evenodd" d="M75.11.457c5.994 0 11.823.708 17.414 2.036 21.005 8.237 30.03 25.991 32.41 43.323.189 1.381.339 2.777.45 4.185 2.749 34.8-18.367 77.074-57.174 100.135C30.021 146.651.108 114.55.108 75.455.107 34.035 33.687.457 75.109.457z" fill="#2C2CFA"/><path fillRule="evenodd" clipRule="evenodd" d="M32.32 137.054C12.853 123.508.108 100.969.108 75.454c0-20.073 7.888-38.304 20.731-51.765 8.85-2.27 22.167-2.814 33.2 4.336 9.237 5.985 17.77 17.24 19.018 37.609 1.315 21.5-9.593 46.659-40.735 71.42z" fill="#231F20"/></svg>