<svg width="151" height="151" viewBox="0 0 151 151" fill="none" xmlns="http://www.w3.org/2000/svg"><path fillRule="evenodd" clipRule="evenodd" d="M150.357 75.383v.141c-.041 41.341-33.525 74.853-74.86 74.933h-.288C33.902 150.377.43 116.906.357 75.598v-.288C.43 33.955 33.982.457 75.357.457c41.394 0 74.959 33.538 75 74.927z" fill="url(#a)"/><path fillRule="evenodd" clipRule="evenodd" d="M104.016 26.975c-5.397-.087-9.345-1.394-13.555-2.796a73.628 73.628 0 0 0-2.674-.878c-11.638-3.673-26.044-3.465-39.244 2.722A53.98 53.98 0 0 0 23.7 49.781c-.952 1.823-1.864 3.727-2.775 5.63-2.46 5.129-4.914 10.244-8.105 13.79C7.946 74.195 3.924 79.243.867 84.143a74.532 74.532 0 0 0 10.813 30.924c35.335-3.875 116.08-42.52 134.16-65.327a74.754 74.754 0 0 0-10.994-19.97c-8.018-2.5-18.73-3.6-30.83-2.788v-.007z" fill="#012B5B"/><path fillRule="evenodd" clipRule="evenodd" d="M89.677 110.549c29.697-13.91 51.021-35.187 58.844-51.637a74.68 74.68 0 0 0-11.222-25.729c-17.034-3.399-46.986 1.958-77.487 16.243-26.72 12.529-47.508 28.913-57.55 42.923 2.735 11.912 8.319 22.739 15.981 31.735 18.18 2.467 45.008-1.16 71.434-13.535z" fill="#1884FF"/><path fillRule="evenodd" clipRule="evenodd" d="M88.63 104.127c20.11-9.419 33.772-22.545 30.507-29.329-3.264-6.77-22.209-4.632-42.326 4.793-20.111 9.419-33.766 22.545-30.508 29.322 3.264 6.777 22.215 4.639 42.326-4.786z" fill="#fff"/><defs><linearGradient id="a" x1="61.297" y1="52.016" x2="126.921" y2="145.764" gradientUnits="userSpaceOnUse"><stop stop-color="#0050AE"/><stop offset="1" stop-color="#036DE6"/></linearGradient></defs></svg>