<svg width="151" height="151" viewBox="0 0 151 151" fill="none" xmlns="http://www.w3.org/2000/svg"><path d="M75.607 150.457c41.421 0 75-33.578 75-75 0-41.421-33.579-75-75-75-41.422 0-75 33.579-75 75 0 41.422 33.578 75 75 75z" fill="url(#a)"/><path fillRule="evenodd" clip-rule="evenodd" d="M123.89 44.52L83.751 83.776v48.818c0 .879-3.811 1.582-8.148 1.636-4.159-.054-8.147-.757-8.147-1.636V83.776L27.334 44.523c-.648-.647 1.405-3.692 4.568-6.852 3.164-3.17 6.273-5.216 6.852-4.575l36.798 35.918 36.795-35.925c.647-.648 3.688 1.408 6.852 4.569 3.17 3.17 5.274 6.214 4.691 6.858v.004z" fill="#EC1C24"/><defs><linearGradient id="a" x1="75.607" y1=".457" x2="75.607" y2="150.457" gradientUnits="userSpaceOnUse"><stop stop-color="#fff"/><stop offset="1" stop-color="#EDEDEE"/></linearGradient></defs></svg>