<svg width="151" height="141" viewBox="0 0 151 141" fill="none" xmlns="http://www.w3.org/2000/svg"><path d="M70.446 140.571c38.69 0 70.055-30.754 70.055-70.057 0-33.128-22.284-62.076-52.456-70.006C82.422-.97 28.562 32.367.391 70.514c0 39.303 31.364 70.057 70.055 70.057z" fill="#FC0"/><path d="M85.39.457c43.788 0 65.001 21.79 65.001 48.568 0 7.983-4.397 14.838-10 21.487 0-34.08-24.947-61.224-55-61.224-15 0-24.612 11.356-34.199 22.561-10.88 12.734-15.547 20.403-22.738 27.6C21.267 66.646 11.341 70.512.391 70.512.39 31.194 32.307.457 70.39.457h15z" fill="#444"/></svg>