<svg width="151" height="151" viewBox="0 0 151 151" fill="none" xmlns="http://www.w3.org/2000/svg"><g clip-path="url(#a)"><path d="M150.947 76.824c-.729 40.791-34.023 73.633-74.988 73.633-41.421 0-75-33.578-75-75 0-41.421 33.579-75 75-75 40.965 0 74.259 32.843 74.988 73.633v2.734z" fill="#A9E6FD"/><path d="M2.077 62.633l-.015.08C2.05 70.603 42.48 80.66 74.085 85.995c28.813 4.863 74.501 6.94 76.001 1.067.03-.115.047-.232.052-.35.553-3.671.839-7.43.839-11.255 0-41.421-33.578-75-75-75-37.047 0-67.82 26.86-73.907 62.17l.007.006z" fill="url(#b)"/><path fill-rule="evenodd" clip-rule="evenodd" d="M74.075 85.995c28.813 4.863 74.501 6.939 76.001 1.067s-28.389-16.283-69.264-23.007c-9.948-1.637-77.057-11.362-78.76-1.343-.013 7.89 40.417 17.948 72.023 23.283z" fill="#D12000"/><path fill-rule="evenodd" clip-rule="evenodd" d="M84.685 23.308c2.593.457 4.33 2.955 3.879 5.58l-15.7 91.414c-1.08 6.291 3.086 12.283 9.3 13.376 6.213 1.094 12.13-3.123 13.211-9.414l.615-3.582c.451-2.625 2.919-4.384 5.511-3.927 2.593.456 4.33 2.954 3.879 5.579l-.615 3.583c-1.982 11.541-12.835 19.274-24.234 17.268-11.4-2.007-19.038-12.995-17.056-24.536l15.699-91.414c.45-2.625 2.918-4.383 5.511-3.927z" fill="#000"/><path d="M150.114 86.827c.564-3.708.857-7.505.857-11.37 0-41.421-33.579-75-75-75-37.047 0-67.82 26.86-73.907 62.17 2.075-9.878 68.824-.203 78.743 1.428 40.334 6.635 69.97 16.86 69.307 22.772z" fill="url(#c)"/></g><defs><linearGradient id="b" x1="86.567" y1="16.718" x2="72.09" y2="95.532" gradientUnits="userSpaceOnUse"><stop stop-color="#FC3F1D"/><stop offset="1" stop-color="#FD8974"/></linearGradient><linearGradient id="c" x1="86.985" y1="25.143" x2="64.916" y2="149.535" gradientUnits="userSpaceOnUse"><stop stop-color="#FC3F1D"/><stop offset="1" stop-color="#FC3F1D" stop-opacity="0"/></linearGradient><clipPath id="a"><path fill="#fff" transform="translate(.959 .457)" d="M0 0h150v150H0z"/></clipPath></defs></svg>