<svg width="151" height="151" viewBox="0 0 151 151" fill="none" xmlns="http://www.w3.org/2000/svg"><g clip-path="url(#a)"><path d="M75.527 150.457c41.421 0 75-33.578 75-75 0-41.421-33.579-75-75-75s-75 33.579-75 75c0 41.422 33.579 75 75 75z" fill="#7F5FFF"/><path d="M145.394 48.132C134.47 20.223 107.307.457 75.527.457c-1.612 0-3.212.051-4.798.151-.573.926-.98 1.914-1.4 2.928-.482 1.166-.978 2.367-1.755 3.55-2.354 3.588-7.352 5.973-11.386 7.897-3.052 1.456-5.551 2.649-5.936 3.9-1.268 4.176 4.789 11.334 8.25 12.625 3.033 1.117 5.854-1.093 8.919-3.495 2.511-1.968 5.186-4.064 8.275-4.563 6.809-1.106 32.134 1.208 36.356 7.92 6.283 6.992 5.564 18.304 1.802 19.876-1.975.825-5.216-.992-8.761-2.979-3.701-2.075-7.732-4.335-11-3.968-1.49.172-3.567 1.064-5.783 2.017-3.138 1.348-6.557 2.817-8.99 2.533-2.077-.24-3.735-2.918-5.37-5.56-1.18-1.907-2.35-3.796-3.656-4.733-2.84-2.033-18.904 1.475-23.039 3.347-5.033 2.263-16.456 18.442-16.76 24.26-.369 6.762 13.41 20.406 18.973 21.49 2.703.522 6.369-.338 9.89-1.165 4.087-.959 7.979-1.872 9.94-.523 1.679 1.164 3.42 9.472 5.47 19.256 3.275 15.635 7.34 35.039 13.204 35.082 6.047.046 22.573-22.527 25.159-26.915 2.273-3.881 2.247-9.207 2.226-13.474-.012-2.535-.022-4.696.452-5.96.718-1.918 3.162-4.11 5.662-6.352 3.033-2.72 6.149-5.515 6.364-7.984.167-1.825-2.503-5.196-5.172-8.565-3.237-4.086-6.471-8.17-4.637-9.486 1.178-.84 4.641.037 8.535 1.024 4.883 1.238 10.444 2.647 13.024 1.055 2.081-1.284 3.109-5.291 4.354-10.144.439-1.712.906-3.53 1.455-5.37zM128.528 108.491c-2.77-.715-5.979 6.439-6.901 9.14-.829 2.494-2.47 9.602 0 10.501 3.001 1.083 7.201-6.762 8.104-9.809.691-2.379 1.199-9.21-1.198-9.809M11.26 114.141a74.632 74.632 0 0 1-5.586-11.325c2.458 1.09 4.412 2.507 5.226 4.969.7 2.119.702 4.216.36 6.356z" fill="#FEE14A"/></g><defs><clipPath id="a"><path fill="#fff" transform="translate(.527 .457)" d="M0 0h150v150H0z"/></clipPath></defs></svg>