<svg width="151" height="151" viewBox="0 0 151 151" fill="none" xmlns="http://www.w3.org/2000/svg"><g clip-path="url(#a)"><path d="M75.311 150.457c41.422 0 75-33.578 75-75 0-41.421-33.578-75-75-75-41.421 0-75 33.579-75 75 0 41.422 33.579 75 75 75z" fill="#FC0"/><path d="M1.303 87.686h87.702l-18.7-17.738-7.85-6.937-.35-.326h30.637l35.8 35.8-35.912 35.901H61.992l18.688-17.713 8.287-7.312H8.394a74.47 74.47 0 0 1-7.09-21.675z" fill="url(#b)"/><path d="M149.224 62.658H64.116l.437.375 7.85 6.938 18.75 17.712h-30.65l-35.9-35.862 35.8-35.788h30.638l-18.525 17.5-8.263 7.438h77.677a74.484 74.484 0 0 1 7.294 21.688z" fill="#fff" filter="url(#c)"/></g><defs><filter id="c" x="22.896" y="14.895" width="126.897" height="73.926" filterUnits="userSpaceOnUse" color-interpolation-filters="sRGB"><feFlood flood-opacity="0" result="BackgroundImageFix"/><feColorMatrix in="SourceAlpha" values="0 0 0 0 0 0 0 0 0 0 0 0 0 0 0 0 0 0 127 0" result="hardAlpha"/><feOffset dx="-.569"/><feGaussianBlur stdDeviation=".569"/><feColorMatrix values="0 0 0 0 0.0509804 0 0 0 0 0.137255 0 0 0 0 0.262745 0 0 0 0.05 0"/><feBlend in2="BackgroundImageFix" result="effect1_dropShadow_258_2108"/><feBlend in="SourceGraphic" in2="effect1_dropShadow_258_2108" result="shape"/></filter><linearGradient id="b" x1="65.067" y1="134.387" x2="65.067" y2="62.687" gradientUnits="userSpaceOnUse"><stop stop-color="#FC3F1D"/><stop offset="1" stop-color="#FF2700"/></linearGradient><clipPath id="a"><path fill="#fff" transform="translate(.311 .457)" d="M0 0h150v150H0z"/></clipPath></defs></svg>