<svg width="151" height="151" viewBox="0 0 151 151" fill="none" xmlns="http://www.w3.org/2000/svg"><path d="M75.096 150.457c41.421 0 74.999-33.578 74.999-75 0-41.421-33.578-75-75-75-41.42 0-75 33.579-75 75 0 41.422 33.58 75 75 75z" fill="url(#a)"/><path d="M75.095 118.958c14.083 0 25.5-19.476 25.5-43.5 0-24.025-11.417-43.5-25.5-43.5s-25.5 19.475-25.5 43.5c0 24.024 11.417 43.5 25.5 43.5z" fill="#fff"/><path fill-rule="evenodd" clip-rule="evenodd" d="M27.284 40.955c-7.568-.39-16.688 15.447-16.688 34.493 0 19.046 9.12 34.883 16.688 34.493 7.505-.39 11.812-15.447 11.812-34.493 0-19.046-4.307-34.103-11.812-34.493zM122.906 109.941c7.569.39 16.689-15.447 16.689-34.493 0-19.046-9.12-34.883-16.689-34.493-7.505.39-11.811 15.447-11.811 34.493 0 19.046 4.306 34.103 11.811 34.493z" fill="#fff"/><defs><radialGradient id="a" cx="0" cy="0" r="1" gradientUnits="userSpaceOnUse" gradientTransform="matrix(0 96 -124.645 0 75.095 54.457)"><stop stop-color="#FF9A6F"/><stop offset=".61" stop-color="#FF6427"/><stop offset="1" stop-color="#EB581E"/></radialGradient></defs></svg>