<svg width="151" height="151" viewBox="0 0 151 151" fill="none" xmlns="http://www.w3.org/2000/svg"><path d="M75.88 150.457c41.421 0 74.999-33.578 74.999-75 0-41.421-33.578-75-75-75-41.421 0-75 33.579-75 75 0 41.422 33.579 75 75 75z" fill="#FF8C5F"/><path d="M150.561 68.5l-6.289 2.606a5.218 5.218 0 0 1-5.719-1.164l-31.117 12.89a1.957 1.957 0 0 1-1.497-3.615l31.119-12.89a5.218 5.218 0 0 1 3.222-4.86l8.54-3.537a74.762 74.762 0 0 1 1.741 10.57zM137.757 33.063a75.115 75.115 0 0 1 5.04 8.49 5.454 5.454 0 0 1-.281.304l-11.4 11.4a5.218 5.218 0 0 1-5.726 1.115l-21.614 21.614a1.956 1.956 0 1 1-2.766-2.767l21.614-21.614a5.217 5.217 0 0 1 1.115-5.725l11.4-11.4a5.186 5.186 0 0 1 2.618-1.417zM148.612 93.83a74.552 74.552 0 0 0 1.852-10.432h-2.631a5.218 5.218 0 0 0-4.836 3.258h-34.798a1.956 1.956 0 0 0 0 3.912h34.796a5.218 5.218 0 0 0 4.838 3.263h.779zM144.335 106.143l-.063-.026a5.22 5.22 0 0 0-5.72 1.164l-31.116-12.89a1.957 1.957 0 0 0-1.497 3.615l31.119 12.891a5.224 5.224 0 0 0 2.37 4.411 74.796 74.796 0 0 0 4.907-9.165zM132.166 125.026l-1.05-1.05a5.217 5.217 0 0 0-5.722-1.116l-21.618-21.618a1.956 1.956 0 1 0-2.766 2.767l21.615 21.615a5.219 5.219 0 0 0 1.114 5.729l1.004 1.004a75.656 75.656 0 0 0 7.423-7.331zM115.069 139.416l-2.418-5.836a5.215 5.215 0 0 0-4.862-3.221l-10.018-24.185a1.955 1.955 0 1 0-3.615 1.498l10.018 24.183a5.22 5.22 0 0 0-1.161 5.718l2.77 6.686a74.73 74.73 0 0 0 9.286-4.843zM93.594 148.353v-13.669a5.218 5.218 0 0 0-3.26-4.837v-21.411a1.956 1.956 0 0 0-3.912 0v21.41a5.219 5.219 0 0 0-3.261 4.838v15.424a74.655 74.655 0 0 0 10.433-1.755zM68.554 150.104l8.675-20.942a5.218 5.218 0 0 0-1.16-5.716l6.534-15.774a1.956 1.956 0 0 0-3.615-1.498l-6.534 15.774a5.218 5.218 0 0 0-4.864 3.221l-9.587 23.145a74.797 74.797 0 0 0 10.551 1.79zM41.987 142.381l22.92-22.924a5.218 5.218 0 0 0 1.117-5.722l9.726-9.726a1.957 1.957 0 0 0-2.766-2.767l-9.725 9.725a5.217 5.217 0 0 0-5.729 1.114l-23.289 23.292a5.189 5.189 0 0 0-1.135 1.7 75.1 75.1 0 0 0 8.881 5.308zM88.377 12.054a5.216 5.216 0 0 1 5.217 5.216v25.281a5.218 5.218 0 0 1-3.26 4.837v21.407a1.956 1.956 0 0 1-3.912 0V47.389a5.218 5.218 0 0 1-3.261-4.838v-25.28a5.216 5.216 0 0 1 5.216-5.217zM59.08 17.884a5.216 5.216 0 0 1 6.815 2.824l11.334 27.36a5.218 5.218 0 0 1-1.16 5.716l6.534 15.773a1.956 1.956 0 0 1-3.615 1.497l-6.533-15.772a5.218 5.218 0 0 1-4.865-3.22L56.257 24.7a5.216 5.216 0 0 1 2.823-6.816zM41.619 34.48a5.216 5.216 0 0 0-7.377 7.377L57.53 65.146a5.218 5.218 0 0 0 5.728 1.114l9.726 9.725a1.956 1.956 0 0 0 2.766-2.766l-9.727-9.727a5.218 5.218 0 0 0-1.116-5.723L41.62 34.48zM17.646 59.312a5.216 5.216 0 0 1 6.816-2.823l32.31 13.386a5.218 5.218 0 0 1 3.222 4.858l10.826 4.484a1.956 1.956 0 0 1-1.497 3.615L58.5 78.349a5.218 5.218 0 0 1-5.72 1.164L20.469 66.128a5.216 5.216 0 0 1-2.823-6.816zM17.033 83.398a5.216 5.216 0 1 0 0 10.433h35.674c2.19 0 4.065-1.35 4.838-3.263h11.016a1.956 1.956 0 0 0 0-3.912H57.543a5.218 5.218 0 0 0-4.836-3.258H17.033zM59.994 102.491a5.218 5.218 0 0 1-3.221 4.86l-32.311 13.385a5.216 5.216 0 1 1-3.993-9.638l32.31-13.385a5.218 5.218 0 0 1 5.72 1.162l10.824-4.483a1.956 1.956 0 1 1 1.497 3.614l-10.826 4.485zM117.68 17.885a5.217 5.217 0 0 1 2.823 6.816l-7.852 18.95a5.218 5.218 0 0 1-4.863 3.22L97.771 71.055a1.956 1.956 0 1 1-3.615-1.497l10.017-24.183a5.218 5.218 0 0 1-1.16-5.716l7.851-18.95a5.217 5.217 0 0 1 6.816-2.823z" fill="#fff"/></svg>