<svg width="151" height="151" viewBox="0 0 151 151" fill="none" xmlns="http://www.w3.org/2000/svg"><circle cx="75.663" cy="75.457" r="75" fill="#242729"/><path d="M91.528 2.139c27.044 5.824 48.666 26.23 56.232 52.582L93.04 89.58c-17.364 11.063-40.41 5.954-51.472-11.411-11.063-17.365-5.954-40.41 11.411-51.473L91.53 2.14z" fill="url(#a)"/><path d="M59.748 148.765c-27.032-5.841-48.64-26.254-56.192-52.607l54.741-34.874c17.365-11.063 40.41-5.954 51.473 11.411 11.063 17.365 5.954 40.41-11.411 51.473l-38.61 24.597z" fill="url(#b)"/><defs><radialGradient id="a" cx="0" cy="0" r="1" gradientUnits="userSpaceOnUse" gradientTransform="matrix(81.25039 -95.28207 99.66796 84.9904 69.413 94.207)"><stop stop-color="#EA190F"/><stop offset=".453" stop-color="#FE6837"/><stop offset="1" stop-color="#FF8548"/></radialGradient><linearGradient id="b" x1="72.538" y1="62.957" x2="-4.249" y2="122.81" gradientUnits="userSpaceOnUse"><stop stop-color="#FFE772"/><stop offset="1" stop-color="#FFD851"/></linearGradient></defs></svg>