<svg width="151" height="151" viewBox="0 0 151 151" fill="none" xmlns="http://www.w3.org/2000/svg"><path d="M75.552 150.457c41.373-.056 74.896-33.613 74.896-75 0-41.421-33.579-75-75-75C34.224.457.767 33.717.45 74.865v1.184c.318 41.114 33.717 74.352 74.893 74.408h.21z" fill="#FF6332"/><path d="M11.787 115.13l8.85-15.33c.75-1.33 2.86-1.083 3.515.295a21.17 21.17 0 0 0 8.65 9.271c9.989 5.632 22.65 2.099 28.282-7.887 5.631-9.989 2.1-22.651-7.888-28.282a20.662 20.662 0 0 0-12.258-2.576c-1.519.153-2.822-1.524-2.073-2.853l9.97-18.645c3.349-5.938 11.02-8.184 16.958-4.836l22.424 12.705c1.39.783 3.165-.696 2.919-2.27a20.666 20.666 0 0 1 2.43-13.396c5.63-9.988 18.292-13.519 28.28-7.887 9.988 5.631 13.519 18.293 7.887 28.28a20.674 20.674 0 0 1-10.203 9.012c-1.476.605-1.822 2.888-.433 3.672l29.669 16.92c-7.279 33.801-37.341 59.134-73.318 59.134-26.854 0-50.412-14.113-63.66-35.327z" fill="#FFDF32"/></svg>