<svg width="151" height="151" viewBox="0 0 151 151" fill="none" xmlns="http://www.w3.org/2000/svg"><circle cx="75.232" cy="75.457" r="75" fill="#C9B7EF"/><path fillRule="evenodd" clipRule="evenodd" d="M3.871 52.311l65.997-17.684a36.583 36.583 0 0 1 44.809 25.863l17.188 64.139c-13.751 15.823-34.024 25.828-56.633 25.828-39.89 0-72.505-31.14-74.864-70.436v-9.128a74.728 74.728 0 0 1 3.503-18.582zM73.412 96.27a20.307 20.307 0 0 1-7.502-2.546v-.004a20.304 20.304 0 0 1 20.304-35.167A20.306 20.306 0 0 1 73.412 96.27z" fill="#7723F2"/><path d="M104.218 6.263c-.656.347-1.309.71-1.958 1.09-10.185 5.942-17.528 14.652-21.648 24.353-4.69 11.045-5.203 23.376-.975 34.375a42.368 42.368 0 0 0 2.602 5.538 42.041 42.041 0 0 0 12.034 13.498 20.303 20.303 0 0 1-5.13 6.55 50.18 50.18 0 0 1-14.025-15.894 51.132 51.132 0 0 1-6.133-18.552c-.984-7.642-.269-15.44 1.988-22.874C74.7 22.07 82.627 10.787 94.042 2.834a74.417 74.417 0 0 1 10.176 3.429zM147.513 95.536a74.668 74.668 0 0 0 2.151-10.803 54.323 54.323 0 0 1-2.929 1.836c-7.47 4.358-15.42 6.623-23.191 7.008l2.185 8.152a59.324 59.324 0 0 0 21.784-6.193z" fill="#fff"/></svg>