<svg width="151" height="151" viewBox="0 0 151 151" fill="none" xmlns="http://www.w3.org/2000/svg"><g clip-path="url(#a)"><path d="M75.016 150.457c41.421 0 75-33.578 75-75 0-41.421-33.579-75-75-75-41.422 0-75 33.579-75 75 0 41.422 33.578 75 75 75z" fill="#000"/><path d="M129.117 35.873H75.013v21.881h54.104V35.873z" fill="url(#b)"/><path d="M129.117 35.873H75.013v21.881h54.104V35.873z" fill="url(#c)" fill-opacity=".5"/><path d="M75.018 115.041c-21.828 0-39.587-17.759-39.587-39.587 0-21.828 17.76-39.584 39.587-39.584 21.829 0 39.585 17.759 39.585 39.584 0 21.826-17.76 39.587-39.585 39.587zm0-57.293A17.727 17.727 0 0 0 57.31 75.454a17.727 17.727 0 0 0 17.708 17.709 17.727 17.727 0 0 0 17.706-17.709 17.727 17.727 0 0 0-17.706-17.706z" fill="#42FF98"/><path d="M57.31 75.457L39.615 93.153a39.633 39.633 0 0 0 35.404 21.891V93.166A17.728 17.728 0 0 1 57.31 75.457z" fill="url(#d)"/><path d="M57.31 75.457L39.615 93.153a39.633 39.633 0 0 0 35.404 21.891V93.166A17.728 17.728 0 0 1 57.31 75.457z" fill="url(#e)" fill-opacity=".5"/><path d="M57.311 148.355a74.559 74.559 0 0 1-21.881-9.184V75.457h21.881v72.898z" fill="url(#f)"/></g><defs><linearGradient id="b" x1="102.065" y1="35.873" x2="102.065" y2="57.754" gradientUnits="userSpaceOnUse"><stop stop-color="#42FF98"/><stop offset="1" stop-color="#00C7E2"/></linearGradient><linearGradient id="c" x1="90.237" y1="61.974" x2="99.233" y2="35.913" gradientUnits="userSpaceOnUse"><stop/><stop offset="1" stop-opacity="0"/></linearGradient><linearGradient id="d" x1="74.894" y1="103.381" x2="45.129" y2="96.767" gradientUnits="userSpaceOnUse"><stop stop-color="#42FF98"/><stop offset="1" stop-color="#00C7E2"/></linearGradient><linearGradient id="e" x1="47.642" y1="115.023" x2="69.075" y2="116.092" gradientUnits="userSpaceOnUse"><stop/><stop offset="1" stop-opacity="0"/></linearGradient><linearGradient id="f" x1="46.37" y1="90.459" x2="46.37" y2="148.35" gradientUnits="userSpaceOnUse"><stop stop-color="#42FF98"/><stop offset="1" stop-color="#00C7E2"/></linearGradient><clipPath id="a"><path fill="#fff" transform="translate(.016 .457)" d="M0 0h150v150H0z"/></clipPath></defs></svg>