<svg width="151" height="151" viewBox="0 0 151 151" fill="none" xmlns="http://www.w3.org/2000/svg"><g clip-path="url(#a)"><path d="M75.8 150.457c41.421 0 75-33.578 75-75 0-41.421-33.579-75-75-75s-75 33.579-75 75c0 41.422 33.579 75 75 75z" fill="#F1F0ED"/><path d="M83.612.86l39.094 22.996a18.956 18.956 0 0 1 9.344 16.34v66.55a18.956 18.956 0 0 1-9.344 16.339l-46.532 27.371-.374.001c-41.421 0-75-33.578-75-75 0-41.421 33.579-75 75-75 2.638 0 5.244.136 7.812.402z" fill="#C4C4C4"/><path d="M83.612.86A75.868 75.868 0 0 0 75.8.456C38.608.457 7.74 27.53 1.823 63.042l36.478 21.457 91.266-53.685a18.94 18.94 0 0 0-6.779-6.91L83.612.86z" fill="url(#b)"/><path d="M38.3 140.425C15.883 127.458.8 103.22.8 75.459c0-4.229.35-8.376 1.022-12.413L38.3 84.504v55.921z" fill="url(#c)"/><path d="M38.3 140.424V84.502l91.267-53.686a18.933 18.933 0 0 1 2.483 9.338v66.635a18.955 18.955 0 0 1-9.344 16.297l-46.53 27.37-.376.001c-13.66 0-26.468-3.652-37.5-10.033z" fill="url(#d)"/><path d="M76.175 150.456l22.787-13.404V54.969a10.34 10.34 0 0 0-5.055-8.888l-57.721-34.32a75.401 75.401 0 0 0-21.038 19.57l51.185 30.435a10.34 10.34 0 0 1 5.056 8.887v79.677c1.46.084 2.93.127 4.411.127l.375-.001z" fill="url(#e)"/><path d="M25.939 19.431a75.349 75.349 0 0 1 6.325-5.052l2.245.5-2.413 1.378 9.651 5.86-4.825 2.067-9.65-5.514-1.333.761zM18.705 26.823a75.345 75.345 0 0 1 2.965-3.279l8.358 4.776-4.48 2.413-6.843-3.91zM45.883 21.772l-20.68 11.374 2.068 1.378 20.68-11.374-2.068-1.378z" fill="#4E4E4E"/><path fillRule="evenodd" clipRule="evenodd" d="M49.675 47.965c-5.515-3.791-4.826-9.306 1.034-12.408 5.859-3.446 15.165-2.757 20.335 1.034 4.48 3.102 4.136 8.272 5.17 15.855 0 .69-.69 1.034-1.723 1.034-8.962-1.723-19.302-2.068-24.816-5.515zm15.165-2.412c2.757-1.38 2.757-4.136.345-5.86-2.413-1.723-6.549-2.068-9.306-.344-2.758 1.378-2.758 4.136-.345 5.859 2.413 1.379 6.549 1.723 9.306.345z" fill="#4E4E4E"/><path d="M93.694 62.521l-7.88 4.455-.944 3.228 2.933-1.574-3.934 11.374 1.001-8.262-2.825 1.466.822-4.364-6.653 3.863c.024.99.1 3.628.215 6.26.357 9.12 5.638 9.265 7.375 9.061.018 1.21.443 5.4-.63 7.801-1.073 2.402-3.029 3.028-4.747 4.243-.92.651-.425 2.018 1.44 1.056 1.865-.963 8.631-5.12 10.866-6.22 1.145-.563 1.318-2.17-.504-1.347-5.02 2.268-4.415-1.614-4.415-2.99 0-1.377-.021-1.735 0-3.396 7.71-10.245 8.466-20.705 7.88-24.654z" fill="#4E4E4E"/><path fillRule="evenodd" clipRule="evenodd" d="M76.214 125.517l2.068-1.034v11.719l4.136-2.413V122.07l2.068-1.034-4.136-10.685-4.136 15.166zm9.996-5.515l2.067-1.034v11.719l4.137-2.413v-11.719l2.067-1.034-4.48-11.029-3.791 15.51zm-9.996 19.991l17.922-10.34v2.757l-17.922 10.34v-2.757z" fill="#4E4E4E"/></g><defs><linearGradient id="b" x1="34.551" y1="-19.838" x2="40.762" y2="67.982" gradientUnits="userSpaceOnUse"><stop stop-color="#FFE7C2"/><stop offset="1" stop-color="#E3B673"/></linearGradient><radialGradient id="c" cx="0" cy="0" r="1" gradientUnits="userSpaceOnUse" gradientTransform="matrix(-66.7971 -79.41128 74.4019 -62.58345 34.199 166.117)"><stop stop-color="#CA8D32"/><stop offset="1" stop-color="#F2C888"/></radialGradient><radialGradient id="d" cx="0" cy="0" r="1" gradientUnits="userSpaceOnUse" gradientTransform="rotate(-27.402 286.09 41.604) scale(118.62 107.198)"><stop stop-color="#C4892F"/><stop offset="1" stop-color="#E6BE81"/></radialGradient><radialGradient id="e" cx="0" cy="0" r="1" gradientUnits="userSpaceOnUse" gradientTransform="rotate(30.763 -29.455 -35.616) scale(134.771 98.6675)"><stop stop-color="#FFF6E8"/><stop offset=".678" stop-color="#FFF9EF"/><stop offset="1" stop-color="#F0DBBC"/></radialGradient><clipPath id="a"><path fill="#fff" transform="translate(.8 .457)" d="M0 0h150v150H0z"/></clipPath></defs></svg>