<svg width="151" height="151" viewBox="0 0 151 151" fill="none" xmlns="http://www.w3.org/2000/svg"><path d="M25.584 75.457c0-27.614 22.386-50 50-50s50 22.386 50 50c0 27.615-22.386 50-50 50s-50-22.385-50-50z" fill="#fff"/><path d="M75.584 150.457c-18.637-.45-26.015-12.909-28.267-24.94-1.223-6.542-.686-17.417 0-21.299.715-4.055 1.71-9.245 2.86-15.227.643-3.353 1.335-6.955 2.051-10.746 2.853-15.12 10.423-23.72 26.766-26.787l26.732-5.105c.707-3.968 2.05-14.476.827-20.953C104.283 13.258 94.937.69 75.973.458h-.389c-41.421 0-75 33.578-75 75 0 41.421 33.579 74.999 75 74.999z" fill="url(#a)"/><path d="M150.584 75.2v.514c-.138 41.303-33.664 74.743-75 74.743l-.389-.001c-18.961-.231-27.45-12.806-29.72-24.947-1.083-5.738.627-14.807 1.524-19.561.116-.613.218-1.154.299-1.608l24.876-4.884C88.516 96.39 96.087 87.79 98.939 72.67c.717-3.79 1.409-7.392 2.052-10.745 1.149-5.983 2.145-11.173 2.86-15.227.082-.466.189-1.031.311-1.678.894-4.744 2.609-13.84 1.533-19.597C103.443 13.39 94.221.908 75.584.457c41.336 0 74.862 33.44 75 74.744z" fill="url(#b)"/><defs><linearGradient id="a" x1="107.048" y1=".457" x2="-10.992" y2="142.05" gradientUnits="userSpaceOnUse"><stop stop-color="#4E7FFF"/><stop offset="1" stop-color="#D2DFFF"/></linearGradient><linearGradient id="b" x1="150.584" y1=".457" x2="30.695" y2="137.866" gradientUnits="userSpaceOnUse"><stop stop-color="#D2DFFF"/><stop offset="1" stop-color="#4E7FFF"/></linearGradient></defs></svg>