<svg width="151" height="151" viewBox="0 0 151 151" fill="none" xmlns="http://www.w3.org/2000/svg"><circle cx="75.368" cy="75.457" r="75" fill="url(#a)"/><path d="M105.4 144.203c26.472-11.581 44.968-38.003 44.968-68.746 0-23.092-10.435-43.746-26.848-57.504L43.145 37.486c-10.807 2.626-17.553 13.543-15.066 24.383a19.825 19.825 0 0 0 24.069 14.873l38.633-9.39-67.563 62.006c10.713 10.367 24.507 17.569 39.875 20.1l56.049-51.439-12.773 38.018a19.906 19.906 0 0 0-.969 8.166z" fill="url(#b)"/><defs><linearGradient id="a" x1="150.368" y1="143.997" x2="-84.632" y2="-74.128" gradientUnits="userSpaceOnUse"><stop offset=".01" stop-color="#3E3BA0"/><stop offset="1" stop-color="#498BFF"/></linearGradient><linearGradient id="b" x1=".369" y1="135.873" x2="363.493" y2="-57.877" gradientUnits="userSpaceOnUse"><stop stop-color="#FFF11D"/><stop offset="1" stop-color="#FFB800"/></linearGradient></defs></svg>