<svg width="151" height="151" viewBox="0 0 151 151" fill="none" xmlns="http://www.w3.org/2000/svg"><path d="M75.153 150.457c41.421 0 75-33.578 75-75 0-41.421-33.579-75-75-75-41.422 0-75 33.579-75 75 0 41.422 33.578 75 75 75z" fill="#000"/><path fillRule="evenodd" clipRule="evenodd" d="M132.405 75.457c0 31.619-25.633 57.252-57.252 57.252-31.62 0-57.252-25.633-57.252-57.252 0-31.62 25.632-57.252 57.252-57.252 31.619 0 57.252 25.632 57.252 57.252zM113.321 46.65s-12.449 11.522-12.449 28.806 12.449 28.806 12.449 28.806l-9.362 9.362s-11.728-12.448-28.806-12.448c-17.078 0-28.806 12.448-28.806 12.448l-9.362-9.362S49.433 92.74 49.433 75.456 36.985 46.65 36.985 46.65l9.362-9.362s11.83 12.448 28.806 12.448c16.975 0 28.806-12.448 28.806-12.448l9.362 9.362z" fill="#FCB900"/></svg>