<svg width="151" height="151" viewBox="0 0 151 151" fill="none" xmlns="http://www.w3.org/2000/svg"><g clip-path="url(#a)"><path d="M75.937 150.457c41.421 0 75-33.578 75-75 0-41.421-33.579-75-75-75-41.422 0-75 33.579-75 75 0 41.422 33.578 75 75 75z" fill="url(#b)"/><path d="M73.333 60.153l-4.718-15.727c-.039-2.01-2.68-2.878-4.02-1.34 0 0-17.71 19.944-25.318 28.498 0 0 2.72-.631 6.937-1.774 6.977-1.971 18.053-5.321 27.119-9.657z" fill="#8BC6FF"/><path d="M47.48 113.655c-12.038-4.67-17.978-18.21-13.307-30.248.405-1.01.86-1.981 1.363-2.913L61.51 32.89c1.082-2.006 4.07-1.594 4.561.62l12.72 53.448c.947 4.32.672 8.955-1.062 13.391-4.695 12.018-18.236 17.958-30.248 13.307z" fill="#8BC6FF"/><path d="M40.83 110.443C30.13 99.072 30.706 81.199 42.077 70.497a34.025 34.025 0 0 1 3.007-2.468l53.16-38.412c2.225-1.626 5.271.381 4.653 3.054l-13.98 64.957a27.895 27.895 0 0 1-8.14 14.061c-11.387 10.667-29.26 10.091-39.945-1.246z" fill="#BADEFF"/><path d="M33.274 99.958c-4.848-15.372 3.705-31.73 19.077-36.578 1.301-.394 2.602-.71 3.903-.946l66.652-11.864c2.799-.513 4.73 2.72 2.956 4.927l-42.135 54.118a28.792 28.792 0 0 1-13.875 9.421c-15.372 4.808-31.73-3.745-36.578-19.078z" fill="url(#c)"/><path d="M60.956 103.51c6.879 0 12.455-5.576 12.455-12.455 0-6.88-5.576-12.456-12.455-12.456-6.88 0-12.456 5.577-12.456 12.456s5.577 12.455 12.456 12.455z" fill="#2E78FF"/></g><defs><linearGradient id="b" x1="117.712" y1="-29.566" x2="-18.681" y2="99.319" gradientUnits="userSpaceOnUse"><stop offset=".191" stop-color="#2CA6FF"/><stop offset=".646" stop-color="#2E82FF"/><stop offset="1" stop-color="#4483FD"/></linearGradient><linearGradient id="c" x1="63.279" y1="120.543" x2="77.751" y2="46.575" gradientUnits="userSpaceOnUse"><stop stop-color="#C8E5FF"/><stop offset="1" stop-color="#fff"/></linearGradient><clipPath id="a"><path fill="#fff" transform="translate(.937 .457)" d="M0 0h150v150H0z"/></clipPath></defs></svg>