<svg width="151" height="151" viewBox="0 0 151 151" fill="none" xmlns="http://www.w3.org/2000/svg"><g clip-path="url(#a)"><circle cx="75.357" cy="75.457" r="75" fill="#fff"/><path fillRule="evenodd" clip-rule="evenodd" d="M34.108 64.208c0-22.782 18.467-41.25 41.25-41.25 22.782 0 41.25 18.468 41.25 41.25 0 11.387-4.614 21.698-12.076 29.162-1.948 1.949-4.585 4.125-7.437 6.479-8.078 6.666-17.882 14.757-18.644 23.14-.154 1.701-1.386 3.094-3.093 3.094-1.708 0-2.94-1.393-3.094-3.094-.762-8.383-10.566-16.474-18.643-23.14-2.852-2.354-5.49-4.53-7.437-6.48-7.462-7.463-12.076-17.774-12.076-29.161zm55.686 0c0 7.974-6.464 14.438-14.438 14.438-7.973 0-14.437-6.464-14.437-14.438 0-7.973 6.464-14.437 14.437-14.437 7.974 0 14.438 6.464 14.438 14.437z" fill="url(#b)"/></g><defs><linearGradient id="b" x1="75.358" y1="22.958" x2="75.358" y2="126.083" gradientUnits="userSpaceOnUse"><stop stop-color="#FF6122"/><stop offset="1" stop-color="#F22411"/></linearGradient><clipPath id="a"><path fill="#fff" transform="translate(.357 .457)" d="M0 0h150v150H0z"/></clipPath></defs></svg>