<svg width="151" height="151" viewBox="0 0 151 151" fill="none" xmlns="http://www.w3.org/2000/svg"><circle cx="75.721" cy="75.457" r="75" fill="#6F8E9C"/><circle cx="75.721" cy="75.457" r="75" fill="#786565"/><path d="M114.314 110.463a7.75 7.75 0 0 1-7.752 0l-14.557-8.404v16.834a7.753 7.753 0 0 1-3.876 6.713l-6.154 3.553a7.751 7.751 0 0 1-7.752 0l-42.86-24.745a7.753 7.753 0 0 1-3.877-6.714V50.948a7.752 7.752 0 0 1 3.876-6.713l6.154-3.553a7.752 7.752 0 0 1 7.752 0l14.557 8.404V32.251a7.752 7.752 0 0 1 3.876-6.713l6.153-3.553a7.752 7.752 0 0 1 7.752 0l42.861 24.746a7.75 7.75 0 0 1 3.876 6.713v46.752a7.753 7.753 0 0 1-3.875 6.714l-6.154 3.553z" fill="#FFDD29"/><path d="M100.688 120.201a7.75 7.75 0 0 1-7.752 0l-.957-.553a7.74 7.74 0 0 0 .037-.758V72.138a7.752 7.752 0 0 0-3.876-6.713L46.236 41.232a7.753 7.753 0 0 1 3.84-5.956l6.153-3.552a7.75 7.75 0 0 1 7.752 0l42.861 24.745a7.75 7.75 0 0 1 3.876 6.714v46.752a7.751 7.751 0 0 1-3.876 6.713l-6.154 3.553z" fill="url(#a)"/><defs><radialGradient id="a" cx="0" cy="0" r="1" gradientUnits="userSpaceOnUse" gradientTransform="rotate(148.368 63.3 40.042) scale(66.597 86.3265)"><stop stop-color="#F2B15D"/><stop offset="0" stop-color="#EFA13D" stop-opacity=".938"/><stop offset="1" stop-color="#F0A23B" stop-opacity="0"/></radialGradient></defs></svg>