<svg width="151" height="151" viewBox="0 0 151 151" fill="none" xmlns="http://www.w3.org/2000/svg"><path d="M150.505 75.457c0-41.406-33.554-74.975-74.955-75a74.667 74.667 0 0 0-.09 0C34.06.482.505 34.051.505 75.457c0 41.407 33.556 74.977 74.957 75h.086c41.402-.023 74.957-33.593 74.957-75z" fill="url(#a)"/><path d="M116.254 63.457a36.425 36.425 0 0 0-6.24-6.25L90.325 40.02c-5.242-4.594-7.863-6.875-10.796-7.75a14.239 14.239 0 0 0-7.925 0c-2.933.875-5.554 3.125-10.796 7.75L41.182 57.207a36.41 36.41 0 0 0-6.24 6.25 16.294 16.294 0 0 0-2.371 5.25 36.396 36.396 0 0 0-.75 8.97V91.8c0 7.406 0 11.094 1.405 13.938a13.366 13.366 0 0 0 5.679 5.781c2.777 1.437 6.427 1.437 13.697 1.437h45.805c7.27 0 10.92 0 13.697-1.437a13.365 13.365 0 0 0 5.679-5.781c1.404-2.844 1.404-6.532 1.404-13.938V77.676a36.395 36.395 0 0 0-.562-8.969 16.278 16.278 0 0 0-2.371-5.25z" fill="url(#b)"/><path d="M34.756 63.456a16.294 16.294 0 0 0-2.371 5.25 36.399 36.399 0 0 0-.562 8.969V91.8c0 7.406 0 11.093 1.404 13.937a13.366 13.366 0 0 0 5.68 5.781c2.776 1.438 6.427 1.438 13.697 1.438h45.804c7.27 0 10.921 0 13.698-1.438a13.148 13.148 0 0 0 5.554-5.593A67.207 67.207 0 0 0 86.645 65.3a69.585 69.585 0 0 0-44.213-9.281l-1.373 1.187a36.406 36.406 0 0 0-6.303 6.25z" fill="url(#c)"/><path d="M66.425 84.549a42.312 42.312 0 0 0-34.603 1.875v5.375c0 7.406 0 11.094 1.404 13.937a13.363 13.363 0 0 0 5.68 5.782c2.776 1.437 6.427 1.437 13.697 1.437H91.76a40.645 40.645 0 0 0-8.393-16.437 42.09 42.09 0 0 0-16.943-11.97z" fill="url(#d)"/><defs><linearGradient id="a" x1="21.57" y1="129.346" x2="128.792" y2="22.124" gradientUnits="userSpaceOnUse"><stop stop-color="#C926FF"/><stop offset="1" stop-color="#4A26FF"/></linearGradient><linearGradient id="b" x1="49.919" y1="59.489" x2="97.889" y2="108.415" gradientUnits="userSpaceOnUse"><stop stop-color="#fff"/><stop offset=".5" stop-color="#FFBEF1"/><stop offset="1" stop-color="#E374FF"/></linearGradient><linearGradient id="c" x1="50.42" y1="74.487" x2="100.359" y2="125.379" gradientUnits="userSpaceOnUse"><stop stop-color="#fff"/><stop offset=".51" stop-color="#FFCBF7"/><stop offset="1" stop-color="#EE86FF"/></linearGradient><linearGradient id="d" x1="59.218" y1="97.33" x2="102.494" y2="97.33" gradientUnits="userSpaceOnUse"><stop stop-color="#fff"/><stop offset="1" stop-color="#FFD1F8"/></linearGradient></defs></svg>