<svg width="152" height="151" viewBox="0 0 152 151" fill="none" xmlns="http://www.w3.org/2000/svg"><g clip-path="url(#a)"><path d="M75.573 150.457c41.698 0 75.5-33.578 75.5-75 0-41.421-33.802-75-75.5-75-41.697 0-75.5 33.579-75.5 75 0 41.422 33.803 75 75.5 75z" fill="#2EE52E"/><path d="M117.892 114.592s-7.177-8.958-13.816-11.26c-5.467-1.893-15.201-4.188-15.201-4.188l2.614-9.8h1.616c7.749 0 14.721-3.48 14.721-10.308 0-2.195-.192-3.445-.192-3.445s9.416-7.047 9.416-18.99c0-9.979-11.383-16.796-11.383-22.558 0-1.436 1.233-2.848 3.692-3.085l4.52-.568c1.073-.136 1.142-1.655.083-1.885l-4.321-.934a3.911 3.911 0 0 1-1.504-.683l-.438-.327c-1.016-.786-1.703-1.559-4.404-1.559-2.719 0-5.269 1.7-5.269 7.145 0 9.023 11.116 14.64 11.116 22.945 0 3.183-2.452 6.652-7.576 6.652-6.273 0-11.317-7.7-24.747-7.7-4.501 0-8.764.869-12.25 2.66-6.512-3.124-27.63 2.174-27.63 20.274 0 2.981 1.05 5.589 3.508 5.589.89 0 1.902-.467 2.253-.643.434-.22 1.743-.87 1.743-.87s1.62 2.188 4.437 2.188c5.817 0 8.772-4.713 8.772-4.713l4.06 3.14-8.009 5.51a3.875 3.875 0 0 0-1.45 1.878l-6.946 18.836c-.293.805-.665.974-1.28 1.189-.832.291-4.415 1.067-3.656 4.666-.73-.276-2.028.173-2.477 1.11l-3.247 7.737a3.254 3.254 0 0 0-.061 2.371s.528 1.3 1.638.851c2.376-1.375 10.443-8.681 12.804-12.227 3.76-5.646 10.576-19.256 10.576-19.256a3.888 3.888 0 0 1 2.593-2.015l18.867-4.321-.9 14.177a3.163 3.163 0 0 0 2.6 3.308l17.794 2.921c.947 3.006 3.312 4.321 4.91 2.927-.202 1.078.282 2.087 1.291 2.471l8.02 2.612a3.314 3.314 0 0 0 2.383-.126c.003-.004 1.49-.665.73-1.696z" fill="#000"/><path d="M69.64 59.614l-22.19 11.02 1.59 5.891 16.63-8.308-4.578 6.738 5.24 4.038 11.6-7.004c-1.35 1.907-4.198 6.325-.29 9.942 6.032 5.582 18.42-4.037 24.494-9.066L99.11 68.73c-6.411 5.064-15.017 10.028-16.688 8.548-1.663-1.472 3.132-6.81 6.227-10.251l.047-.054-5.221-5.158-13.459 8.524 4.256-6.089-4.632-4.637z" fill="#FFE033"/></g><defs><clipPath id="a"><rect x=".073" y=".457" width="151" height="150" rx="75" fill="#fff"/></clipPath></defs></svg>