<svg width="151" height="151" viewBox="0 0 151 151" fill="none" xmlns="http://www.w3.org/2000/svg"><g clip-path="url(#a)"><rect x=".858" y=".457" width="150" height="150" rx="75" fill="#FFF500"/><path d="M.858 75.458c0-41.422 33.578-75 75-75s75 33.578 75 75c0 41.421-33.578 75-75 75s-75-33.579-75-75z" fill="#FFF500"/><path fillRule="evenodd" clip-rule="evenodd" d="M19.707 125.18a75.193 75.193 0 0 1-10.16-14.649l34.768-13.316L74.504.469c.45-.008.902-.012 1.354-.012 10.52 0 20.534 2.166 29.62 6.076L97.724 76.76l50.912-19.499a75.164 75.164 0 0 1 2.221 17.691L95.587 96.12l-5.859 53.058a75.457 75.457 0 0 1-17.552 1.191l5.221-47.283-19.053 7.297-10.782 34.554a74.903 74.903 0 0 1-15.466-8.563l5.648-18.101-18.037 6.907zm45.208-35.855l21.669-69.44-7.05 63.841-14.619 5.6z" fill="#000"/></g><defs><clipPath id="a"><rect x=".858" y=".457" width="150" height="150" rx="75" fill="#fff"/></clipPath></defs></svg>