<svg width="151" height="150" viewBox="0 0 151 150" fill="none" xmlns="http://www.w3.org/2000/svg"><rect x=".814" width="150" height="150" rx="75" fill="#EFF2F7"/><path fillRule="evenodd" clipRule="evenodd" d="M75.815 129.018c29.833 0 54.017-24.185 54.017-54.018 0-29.833-24.184-54.018-54.017-54.018-29.834 0-54.018 24.185-54.018 54.018 0 29.833 24.184 54.018 54.018 54.018zM141.886 75c0 36.49-29.581 66.071-66.071 66.071-36.49 0-66.072-29.581-66.072-66.071 0-36.49 29.581-66.071 66.072-66.071 36.49 0 66.071 29.58 66.071 66.071z" fill="#000"/><path d="M84.542 47.532h-6.146c-10.537 0-15.805 5.268-15.805 13.17 0 8.78 3.512 13.17 11.414 18.439l6.147 4.39-17.56 27.219H48.542l16.682-24.585C55.567 79.141 50.3 72.995 50.3 61.58c0-14.048 9.658-23.706 28.097-23.706h18.438v72.876H84.542V47.532z" fill="#000"/><path fillRule="evenodd" clipRule="evenodd" d="M57.876 44.96c-4.554 4.025-6.908 9.757-6.908 16.62 0 5.593 1.287 9.852 3.731 13.571 2.457 3.74 6.11 6.975 10.92 10.473l.524.38-16.337 24.076h12.42l17.016-26.375-5.617-4.013c-3.97-2.647-6.912-5.121-8.85-8.087-1.954-2.987-2.854-6.415-2.854-10.903 0-4.106 1.375-7.597 4.18-10.052 2.793-2.444 6.922-3.788 12.294-3.788h6.816v63.218h10.953V38.544H78.395c-9.107 0-15.956 2.384-20.52 6.417zm-.887-1.003c4.876-4.308 12.075-6.753 21.406-6.753h19.108v74.215H83.872V48.202h-5.477c-5.164 0-8.938 1.29-11.412 3.456-2.463 2.155-3.723 5.25-3.723 9.044 0 4.293.857 7.45 2.635 10.17 1.791 2.74 4.554 5.093 8.481 7.712l.018.012 6.666 4.761-18.104 28.062H47.279l17.029-25.095c-4.6-3.387-8.23-6.636-10.728-10.437-2.604-3.963-3.951-8.484-3.951-14.306 0-7.186 2.475-13.307 7.36-17.624z" fill="#000"/></svg>