<svg width="151" height="150" viewBox="0 0 151 150" fill="none" xmlns="http://www.w3.org/2000/svg"><path d="M75.917 150c41.421 0 75-33.579 75-75s-33.579-75-75-75-75 33.579-75 75 33.579 75 75 75z" fill="url(#a)"/><path d="M47.792 144.548C25.96 135.711 9.236 116.892 3.28 93.75h44.512v50.798z" fill="url(#b)"/><path d="M47.792 144.548V61.825c0-8.257 6.693-14.95 14.95-14.95h41.3v97.673C95.357 148.064 85.862 150 75.917 150c-9.946 0-19.44-1.936-28.125-5.452z" fill="url(#c)"/><path d="M104.042 144.547c27.486-11.126 46.875-38.073 46.875-69.548 0-31.476-19.389-58.422-46.875-69.549v139.097z" fill="url(#d)"/><defs><linearGradient id="a" x1="108.417" y1="108.743" x2="-15.333" y2="-63.757" gradientUnits="userSpaceOnUse"><stop stop-color="#4643B9"/><stop offset="1" stop-color="#1E8AFF"/></linearGradient><linearGradient id="b" x1="38.417" y1="150" x2="-8.804" y2="131.841" gradientUnits="userSpaceOnUse"><stop stop-color="#FF002E"/><stop offset="1" stop-color="#FF0B36"/></linearGradient><linearGradient id="c" x1="99.355" y1="146.875" x2="127.802" y2="90.049" gradientUnits="userSpaceOnUse"><stop stop-color="#1499FF"/><stop offset="1" stop-color="#01B3FF"/></linearGradient><linearGradient id="d" x1="104.042" y1="7.712" x2="181.453" y2="43.621" gradientUnits="userSpaceOnUse"><stop stop-color="#FFEA1B"/><stop offset="1" stop-color="#FFC809"/></linearGradient></defs></svg>