<svg width="151" height="151" viewBox="0 0 151 151" fill="none" xmlns="http://www.w3.org/2000/svg"><mask id="a" style="mask-type:alpha" maskUnits="userSpaceOnUse" x="0" y="0" width="151" height="151"><circle cx="75.607" cy="75.457" r="75" fill="#D9D9D9"/></mask><g mask="url(#a)"><path d="M.607.457h150v150h-150v-150z" fill="#FFCA38"/><path d="M150.607 124.183v26.274h-150v-27.984l66.675-55.566a11.395 11.395 0 0 1 14.592 0l68.733 57.276z" fill="#FFDC7C"/><path d="M150.607 32.576L83.172 92.623c-4.312 3.844-10.823 3.853-15.14.019L.607 32.848V.458h150v32.118z" fill="url(#b)"/><path d="M150.607 32.576L83.172 92.623c-4.312 3.844-10.823 3.853-15.14.019L.607 32.848V.458h150v32.118z" fill="url(#c)" fill-opacity=".5"/></g><defs><linearGradient id="b" x1="186.152" y1="-94.132" x2="61.746" y2="72.42" gradientUnits="userSpaceOnUse"><stop stop-color="#FFDA3E"/><stop offset="1" stop-color="#FC4714"/></linearGradient><linearGradient id="c" x1="179.833" y1="-11.29" x2="75.86" y2="82.662" gradientUnits="userSpaceOnUse"><stop stop-color="#fff"/><stop offset="1" stop-color="#fff" stop-opacity="0"/></linearGradient></defs></svg>