<svg width="151" height="151" viewBox="0 0 151 151" fill="none" xmlns="http://www.w3.org/2000/svg"><mask id="a" style="mask-type:alpha" maskUnits="userSpaceOnUse" x="0" y="0" width="151" height="151"><path d="M150.107 75.457c0 41.422-33.579 75-75 75-41.422 0-75-33.578-75-75 0-41.421 33.578-75 75-75 41.421 0 75 33.579 75 75z" fill="#D9D9D9"/></mask><g mask="url(#a)"><path d="M.107 75.457h75v75H26.815c-9.292 0-12.667-.958-16.042-2.791a18.923 18.923 0 0 1-7.916-7.875c-1.75-3.375-2.75-6.75-2.75-16V75.457z" fill="#fff"/><path d="M75.107 75.457h75v48.292c0 9.292-.959 12.667-2.792 16.042a18.915 18.915 0 0 1-7.875 7.916c-3.375 1.792-6.75 2.75-16.042 2.75H75.107v-75z" fill="#000"/><path d="M26.815.457h96.583c9.292 0 12.667.959 16.042 2.792a18.922 18.922 0 0 1 7.917 7.875c1.791 3.375 2.75 6.75 2.75 16.042v48.291h-150V27.166c0-9.292.958-12.667 2.791-16.042a18.917 18.917 0 0 1 7.875-7.917c3.375-1.75 6.75-2.75 16-2.75h.042z" fill="#FD3"/></g></svg>