<svg width="151" height="151" viewBox="0 0 151 151" fill="none" xmlns="http://www.w3.org/2000/svg"><g clip-path="url(#a)"><path d="M.358 75.457c0-41.421 33.579-75 75-75 41.422 0 75 33.579 75 75 0 41.422-33.578 75-75 75-41.421 0-75-33.578-75-75z" fill="#FF4112"/><path d="M26.074 131.993A75.182 75.182 0 0 1 5.85 103.681L65.5 10.607l33.226 22.196-11.993 48.103 29.067-36.55 24.166 16.163-9.459 39.64 16.92-3.869a74.768 74.768 0 0 1-13.174 25.609l-34.214 6.519 8.916-37.68-26.648 33.483-28.372-4.997 12.438-49.98-40.299 62.749z" fill="#FD0"/></g><defs><clipPath id="a"><rect x=".357" y=".457" width="150" height="150" rx="75" fill="#fff"/></clipPath></defs></svg>