<svg width="151" height="151" viewBox="0 0 151 151" fill="none" xmlns="http://www.w3.org/2000/svg"><g clip-path="url(#a)"><path d="M75.607 150.457c41.421 0 75-33.578 75-75 0-41.421-33.579-75-75-75-41.422 0-75 33.579-75 75 0 41.422 33.578 75 75 75z" fill="url(#b)"/><path fillRule="evenodd" clip-rule="evenodd" d="M41.294 99.645c5.344 5.344 19.688 8.625 34.313 8.625 14.625 0 28.969-3.281 34.313-8.625 13.5-13.312-19.126-64.312-34.313-64.406-15.188.094-47.719 51.094-34.313 64.406z" fill="#fff"/></g><defs><linearGradient id="b" x1=".607" y1="150.457" x2="150.607" y2=".457" gradientUnits="userSpaceOnUse"><stop stop-color="#C926FF"/><stop offset="1" stop-color="#4A26FF"/></linearGradient><clipPath id="a"><path fill="#fff" transform="translate(.607 .457)" d="M0 0h150v150H0z"/></clipPath></defs></svg>