<svg width="149" height="151" viewBox="0 0 149 151" fill="none" xmlns="http://www.w3.org/2000/svg"><g clip-path="url(#a)"><path d="M.857 74.457c0-40.869 33.13-74 74-74 40.869 0 74 33.131 74 74v2c0 40.869-33.131 74-74 74-40.87 0-74-33.131-74-74v-2z" fill="#000"/><path d="M135.399 61.47l-.335-2.51-20.276-4.797 10.473-15.752-1.237-1.708-16.333 8.1 1.804-22.031-1.804-.907-10.138 17.687-11.935-26.595h-2.25l2.922 26.028-29.848-24.086-2.587.687L76.83 44.803 31.216 29.397l-2.14 2.395 40.77 23.399-56.088 4.797-.566 3.423 58.345 6.391-48.767 40.413 2.252 3.082L82.8 81.332l-11.376 56.051h3.49l22.303-52.735 13.515 41.206 2.363-1.828-5.069-41.32 20.611 23.626 1.245-2.395-15.319-29.224 21.737 7.767.224-2.403-18.13-14.725 17.004-3.883z" fill="#FED42B"/></g><defs><clipPath id="a"><path fill="#fff" transform="translate(.857 .457)" d="M0 0h148v150H0z"/></clipPath></defs></svg>